<?xml version="1.0" encoding="utf-8"?>
<!-- Generator: Adobe Illustrator 19.0.0, SVG Export Plug-In . SVG Version: 6.00 Build 0)  -->
<svg version="1.1" id="圖層_1" xmlns="http://www.w3.org/2000/svg" xmlns:xlink="http://www.w3.org/1999/xlink" x="0px" y="0px"
	 viewBox="50 -26 272.1 85" style="enable-background:new 50 -26 272.1 85;" xml:space="preserve">
<style type="text/css">
	.st0{fill:url(#XMLID_3_);}
	.st1{fill:#ECECEC;}
	.st2{fill:#487CA2;}
	.st3{fill:#0069AC;}
	.st4{fill:#2C576F;}
	.st5{fill:#1E5C83;}
	.st6{fill:#FEFEFE;}
	.st7{fill:#00B7CA;}
	.st8{fill:#84C34B;}
	.st9{fill:#0069AD;}
	.st10{fill:#00B8CB;}
	.st11{fill:#84C44B;}
	.st12{fill:url(#XMLID_4_);}
	.st13{fill:#00FF00;}
	.st14{font-family:'MElleHK-Medium-B5pc-H';}
	.st15{font-size:30px;}
	.st16{font-size:18px;}
</style>
<radialGradient id="XMLID_3_" cx="186.0866" cy="18.6516" r="100.9042" gradientTransform="matrix(0.9998 0 0 0.9905 1.359736e-002 -1.9739)" gradientUnits="userSpaceOnUse">
	<stop  offset="0.2193" style="stop-color:#00FF00;stop-opacity:0"/>
	<stop  offset="1" style="stop-color:#035353"/>
</radialGradient>
<path id="XMLID_63_" class="st0" d="M310.8,59H61.3C55.1,59,50,54,50,47.7v-62.4C50-20.9,55.1-26,61.3-26h249.5
	c6.3,0,11.3,5.1,11.3,11.3v62.4C322.1,54,317.1,59,310.8,59z"/>
<path id="XMLID_62_" class="st1" d="M305.9,54H66.3c-5.7,0-10.4-4.7-10.4-10.4v-54.2c0-5.7,4.7-10.4,10.4-10.4h239.6
	c5.7,0,10.4,4.7,10.4,10.4v54.2C316.3,49.3,311.6,54,305.9,54z"/>
<g id="XMLID_1_">
</g>
<g id="XMLID_124_">
</g>
<g id="XMLID_125_">
</g>
<g id="XMLID_126_">
</g>
<g id="XMLID_127_">
</g>
<g id="XMLID_128_">
</g>
<g>
	<path class="st2" d="M59.7,35.9c-0.3,0.4-0.6,0.7-1,1c0-0.1,0-0.2,0-0.2c0.4-0.2,0.4-0.7,0.7-1C59.6,35.7,59.7,35.8,59.7,35.9z"/>
	<path class="st3" d="M59.7,35.9c-0.2,0-0.2-0.1-0.3-0.3c1.7-3.1,3.5-6.1,5.2-9.2c3-5.3,6-10.6,9.1-16c0.1-0.1,0.2-0.3,0.3-0.4
		C74.1,9.9,74,9.6,74,9.4c0-3.7,0-7.3,0-11c0-0.8,0.1-0.9,0.9-0.9c3.7,0,7.3,0,11,0c0.2,0,0.4,0,0.7,0c2.3-1.3,4.5-2.6,6.8-3.9
		c5.4-3.1,10.7-6.1,16.1-9.2c1.2-0.7,2.3-1.3,3.5-1.9c-5.3,5.3-10.5,10.5-15.8,15.8c0.3,0.2,0.5,0.1,0.8,0.1c6.1,0,12.2,0,18.3,0
		c0.5,0,0.7,0.1,0.7,0.6c0,2,0,4.1,0,6.1c0,11.4,0,22.7,0,34.1c0,0.3,0.1,0.6-0.1,0.9c-0.2,0.1-0.5,0.1-0.7,0.1
		c-13.4,0-26.8,0-40.2,0c-0.8,0-0.8,0-0.8-0.8c0-5.9,0-11.9,0-17.8c0-0.2,0-0.4,0-0.7c-0.1-0.5-0.3-0.1-0.3,0
		c-0.8,0.8-1.6,1.6-2.5,2.4C68.1,27.5,64,31.6,60,35.7C59.9,35.7,59.8,35.8,59.7,35.9z"/>
	<path class="st4" d="M75,21.1c0.2,0.2,0.1,0.5,0.1,0.7c0,5.9,0,11.8,0,17.7c0,0.8,0,0.8,0.8,0.8c13.5,0,26.9,0,40.4,0
		c0.2,0,0.3,0,0.5,0c-0.1,0.2-0.3,0.1-0.5,0.1c-13.6,0-27.2,0-40.8,0c-0.4,0-0.6-0.1-0.6-0.5c0-6.2,0-12.4,0-18.6
		C74.9,21.2,75,21.1,75,21.1z"/>
	<path class="st5" d="M86.5-2.5c-0.2,0.2-0.5,0.1-0.7,0.1c-3.6,0-7.2,0-10.8,0c-0.8,0-0.9,0.1-0.9,0.9c0,3.6,0,7.2,0,10.8
		c0,0.2,0.1,0.5-0.1,0.7c0-4,0-7.9,0-11.9c0-0.5,0.1-0.6,0.6-0.6C78.5-2.5,82.5-2.5,86.5-2.5z"/>
	<path class="st6" d="M95.8,39.5c-6.4,0-12.8,0-19.2,0c-0.8,0-0.8,0-0.8-0.8c0-6.1,0-12.3,0-18.4c0-0.4,0.1-0.6,0.4-0.9
		c0.8-0.7,1.5-1.5,2.3-2.3c0.2-0.2,0.3-0.5,0.3-0.8c0-4.5,0-9-0.1-13.5c0-0.5,0.2-0.5,0.6-0.5c4.4,0,8.9,0,13.3,0
		c0.4,0,0.7-0.1,1.1-0.4c0.7-0.8,1.5-1.5,2.2-2.2c0.2-0.3,0.5-0.4,0.9-0.4c6.2,0,12.3,0,18.5,0c0.5,0,0.7,0.1,0.7,0.7
		c0,12.9,0,25.7,0,38.6c0,0.9,0.2,0.9-0.9,0.9C108.6,39.5,102.2,39.5,95.8,39.5z"/>
	<path class="st7" d="M111.7,5.6c-1.2,0.3-2.4,0.5-3.6,0.8c-1.7,0.4-3.5,0.7-5.2,1.1C100,8.1,97,8.7,94.1,9.4
		c-2.1,0.5-4.3,0.9-6.4,1.4c-0.4,0.1-0.5,0.2-0.5,0.6c-0.6,3.1-1.3,6.2-2,9.3c-0.8,3.6-1.5,7.3-2.3,10.9c-0.3,1.3-0.6,2.6-1,3.9
		c0-0.3,0-0.5,0-0.8c0-9.5,0-19,0-28.6c0-0.5,0.2-0.7,0.7-0.7c9.6,0,19.2,0,28.8,0c0.1,0,0.2,0,0.3,0C111.7,5.5,111.7,5.6,111.7,5.6
		z"/>
	<path class="st8" d="M112.8,19.5c-0.6,0-1.2,0-1.8,0c-4.8,0-9.6,0-14.4,0c-0.8,0-0.8,0-0.8,0.8c0,5.4,0,10.8,0,16.3
		c-0.4-1.1-0.6-2.1-0.8-3.1c-1-4.3-2.1-8.7-3.1-13c-0.5-2-0.9-3.9-1.4-5.9c-0.1-0.5,0-0.6,0.5-0.4c1.6,0.4,3.2,0.8,4.8,1.2
		c2.5,0.6,5,1.2,7.5,1.8c3.2,0.7,6.3,1.5,9.5,2.2C112.8,19.4,112.8,19.4,112.8,19.5z"/>
</g>
<rect x="-262" y="-369" class="st9" width="28" height="44"/>
<rect x="-221" y="-325" class="st10" width="23" height="43"/>
<rect x="-177" y="-276" class="st11" width="29" height="44"/>
<g id="XMLID_50_">
	
		<linearGradient id="XMLID_4_" gradientUnits="userSpaceOnUse" x1="302.761" y1="16.8705" x2="344.365" y2="16.8705" gradientTransform="matrix(-1 0 0 -1 452.364 33.917)">
		<stop  offset="0" style="stop-color:#00FF00;stop-opacity:0"/>
		<stop  offset="0.3" style="stop-color:#00FF00"/>
	</linearGradient>
	<rect id="XMLID_53_" x="108" y="12.5" class="st12" width="41.6" height="9.2"/>
	<polygon id="XMLID_52_" class="st13" points="115.9,4 128.7,4 115.5,17 102.8,17 	"/>
	<polygon id="XMLID_51_" class="st13" points="115.5,16.9 102.8,16.9 115.9,29.9 128.7,29.9 	"/>
</g>
<text transform="matrix(1 0 0 1 169.1515 12.4566)" class="st14 st15">往數碼港</text>
<text transform="matrix(1 0 0 1 175.7282 40.661)" class="st14 st16">To Cyberport</text>
</svg>
