<?xml version="1.0" encoding="utf-8"?>
<!-- Generator: Adobe Illustrator 19.0.0, SVG Export Plug-In . SVG Version: 6.00 Build 0)  -->
<svg version="1.1" id="圖層_1" xmlns="http://www.w3.org/2000/svg" xmlns:xlink="http://www.w3.org/1999/xlink" x="0px" y="0px"
	 viewBox="-161 378.9 272.1 85" style="enable-background:new -161 378.9 272.1 85;" xml:space="preserve">
<style type="text/css">
	.st0{fill:url(#XMLID_4_);}
	.st1{fill:#ECECEC;}
	.st2{fill:#0079C4;}
	.st3{fill:url(#XMLID_5_);}
	.st4{fill:#FF0000;}
</style>
<g id="XMLID_3_">
	
		<radialGradient id="XMLID_4_" cx="-24.8512" cy="418.2529" r="100.9042" gradientTransform="matrix(0.9998 0 0 -0.9905 -9.079149e-002 835.65)" gradientUnits="userSpaceOnUse">
		<stop  offset="0.2193" style="stop-color:#00FF00;stop-opacity:0"/>
		<stop  offset="1" style="stop-color:#035353"/>
	</radialGradient>
	<path id="XMLID_63_" class="st0" d="M99.8,463.9h-249.5c-6.3,0-11.3-5.1-11.3-11.3v-62.4c0-6.3,5.1-11.3,11.3-11.3H99.8
		c6.3,0,11.3,5.1,11.3,11.3v62.4C111.1,458.8,106.1,463.9,99.8,463.9z"/>
	<path id="XMLID_62_" class="st1" d="M94.9,458.8h-239.6c-5.7,0-10.4-4.7-10.4-10.4v-54.2c0-5.7,4.7-10.4,10.4-10.4H94.9
		c5.7,0,10.4,4.7,10.4,10.4v54.2C105.3,454.2,100.6,458.8,94.9,458.8z"/>
	<g id="XMLID_31_">
		<path id="XMLID_93_" class="st2" d="M-128.7,421c-0.9,0.3-1.7,0.4-2.5,0.8c-1.6,0.8-2.4,2.2-2.5,4c-0.1,2.3,0.9,4,2.5,5.4
			c1.4,1.3,3,2.3,4.6,3.1c0.3,0.1,0.6,0.3,0.9,0.3c0.9,0.1,1.4-0.1,1.7-0.9c0.4-1,0.7-2.1,0.9-3.1c0.5-2.8,1-5.7,1.4-8.6
			c0.3-1.8,0.4-3.7,0.5-5.5c0-0.4-0.1-0.7-0.5-0.9c-2.6-1.4-4.9-3.1-7-5.2c-2.2-2.3-3.8-5-4.4-8.2c-0.5-2.9-0.3-5.6,1.6-8.1
			c1.9-2.5,4.4-4.2,7.6-4.6c1-0.1,2.1,0.1,3.2,0.2c0.3,0,0.6,0,0.9-0.1c2.3-0.9,4.7,0.5,5.1,2.9c0.3,1.7-0.9,3.3-2.1,3.8
			c-0.3,0.2-0.5,0.3-0.5,0.7c-0.1,1.7-0.2,3.3-0.2,5c-0.1,2.9-0.1,5.9-0.1,8.8c0,0.4,0.1,0.5,0.5,0.7c2.3,0.8,4.6,1.5,6.8,2.4
			c3.7,1.6,7.2,3.5,10.2,6.2c1.8,1.6,3.3,3.5,4.3,5.7c1.3,2.8,1.2,5.7,0.3,8.5c-0.7,2.2-1.8,4.2-3.1,6.1c-0.2,0.3-0.3,0.3-0.6,0.1
			c-2.2-1.1-4.4-2.3-6.7-2.9c-1.6-0.4-3.2-0.7-4.9-0.6c-1.6,0.1-3.2,0.5-4.7,1c-0.9,0.3-1.8,0.6-2.8,0.8c-1.2,0.2-2.5,0.2-3.7-0.2
			c-1.1-0.4-2.2-0.7-3.3-1.1c-2.8-0.8-5.5-0.7-8.3,0.1c-2.1,0.6-4.1,1.6-6,2.6c-0.5,0.3-0.5,0.3-0.8-0.2c-1.5-3-2.2-6.2-1.9-9.6
			c0.4-4.2,2.4-7.5,6-9.8c1.8-1.2,3.8-1.4,5.9-0.9C-129.7,420-129.1,420.5-128.7,421z M-120.7,410.3c0.1-1,0.1-1.9,0.2-2.8
			c0.1-1.2,0.1-2.4,0.2-3.6c0.1-2.4,0.2-4.8,0.3-7.1c0-0.2-0.1-0.5-0.3-0.6c-0.9-0.7-1.6-1.5-1.7-2.7c0-0.2-0.2-0.4-0.4-0.4
			c-0.6-0.3-1.3-0.4-2-0.2c-2.3,0.5-4.1,1.8-5,4c-1,2.5-0.5,4.9,0.9,7c1.8,2.8,4.4,4.7,7.3,6.2C-121,410.2-120.9,410.2-120.7,410.3z
			 M-117.5,417.7c0,0.1,0,0.2,0,0.3c0,1.2,0,2.4,0.1,3.6c0.1,1.1,0.1,2.1,0.3,3.2c0.3,2.2,0.6,4.5,0.9,6.7c0.1,0.7,0.3,1.4,0.5,2.1
			c0.2,0.7,0.7,0.8,1.4,0.4c0.2-0.2,0.4-0.3,0.6-0.5c1-1.1,1.6-2.4,2.1-3.8c0.8-2.4,0.9-4.7-0.4-7c-1.2-2.2-3-3.7-5.1-4.9
			C-117.2,417.7-117.3,417.7-117.5,417.7z M-119.7,434.6c0.1-0.1,0.1-0.1,0.2-0.2c0.1-0.1,0.1-0.2,0.2-0.3c0.5-1,0.5-2.1,0.5-3.1
			c-0.1-2.9-0.2-5.7-0.3-8.6c-0.1-1.7-0.1-3.4-0.2-5.1c0-0.1-0.1-0.2-0.1-0.2c-0.1,0.2-0.1,0.3-0.2,0.5c-0.1,1-0.1,2-0.2,3
			c-0.1,1.8-0.2,3.5-0.3,5.3c-0.1,1.1-0.1,2.1-0.2,3.2c-0.1,1.3-0.1,2.6-0.1,4C-120.4,433.5-120.2,434.1-119.7,434.6z M-117.1,393
			c0-0.8-0.5-1.3-1.3-1.3c-0.8,0-1.3,0.6-1.3,1.3c0,0.7,0.5,1.3,1.3,1.3C-117.7,394.2-117.2,393.8-117.1,393z"/>
		<path id="XMLID_92_" class="st2" d="M-134,447.7c1.5-0.7,2.9-1.2,4.3-1.4c2-0.3,3.9,0.2,5.7,0.8c1.3,0.5,2.6,0.8,4,0.9
			c1.3,0,2.5-0.2,3.8-0.6c1.1-0.4,2.2-0.7,3.4-1c1.8-0.4,3.5-0.2,5.2,0.4c0.7,0.2,1.3,0.5,2.1,0.8c-0.2,0.2-0.4,0.3-0.5,0.4
			c-3.5,2.5-7.3,4.4-11.5,5.6c-0.8,0.2-1.5,0.4-2.3,0.5c-0.4,0-0.7-0.1-1.1-0.2c-3.9-1.1-7.5-2.6-10.9-4.7
			C-132.5,448.8-133.2,448.3-134,447.7z"/>
		<path id="XMLID_91_" class="st2" d="M-139.2,442.3c0.5-0.2,0.8-0.4,1.2-0.6c1.9-1,3.8-1.9,5.9-2.3c2.3-0.5,4.5-0.4,6.8,0.4
			c1.2,0.4,2.4,0.8,3.6,1.1c1.8,0.4,3.6,0.2,5.4-0.4c1.2-0.4,2.3-0.8,3.5-1.1c2.5-0.6,5-0.4,7.3,0.6c1.8,0.7,3.5,1.5,5.4,2.4
			c-0.4,0.5-0.8,0.9-1.1,1.2c-0.1,0.1-0.3,0-0.4-0.1c-1.3-0.6-2.6-1.3-4-1.8c-3.4-1.3-6.8-1.2-10.2,0c-1,0.4-2,0.6-3,0.8
			c-1.2,0.3-2.3,0-3.4-0.3c-1.4-0.4-2.8-0.9-4.2-1.2c-2.3-0.5-4.7-0.3-6.9,0.5c-1.6,0.6-3.1,1.3-4.6,2c-0.3,0.1-0.5,0.2-0.7-0.2
			C-138.7,443-138.9,442.7-139.2,442.3z"/>
		<path id="XMLID_90_" class="st2" d="M-102.6,445.1c-0.4,0.4-0.8,0.8-1.2,1.1c-0.1,0.1-0.3,0-0.5,0c-1.3-0.5-2.6-1-4-1.4
			c-2.4-0.7-4.8-0.4-7.2,0.5c-1.1,0.4-2.3,0.7-3.5,0.9c-1.1,0.2-2.1,0-3.1-0.3c-1.3-0.4-2.5-0.8-3.8-1.1c-2.1-0.5-4.3-0.3-6.3,0.4
			c-1,0.3-2.1,0.8-3.1,1.2c-0.2,0.1-0.4,0.1-0.6-0.1c-0.3-0.3-0.7-0.6-1.1-1c0.1,0,0.2-0.1,0.2-0.1c1.8-0.9,3.6-1.7,5.5-2.2
			c2.2-0.5,4.3-0.3,6.4,0.5c1.1,0.4,2.3,0.8,3.5,1c1.4,0.2,2.9,0.2,4.3-0.2c1.4-0.4,2.7-0.9,4.1-1.2c2.1-0.5,4.2-0.3,6.2,0.4
			c1.3,0.5,2.5,1.1,3.8,1.6C-102.8,444.9-102.7,445-102.6,445.1z"/>
	</g>
	<g id="XMLID_50_">
		
			<linearGradient id="XMLID_5_" gradientUnits="userSpaceOnUse" x1="-108.239" y1="421.8515" x2="-66.635" y2="421.8515" gradientTransform="matrix(1 0 0 -1 0 843.592)">
			<stop  offset="0" style="stop-color:#FF0000;stop-opacity:0"/>
			<stop  offset="0.3" style="stop-color:#FF0000"/>
		</linearGradient>
		<rect id="XMLID_53_" x="-108.2" y="417.2" class="st3" width="41.6" height="9.2"/>
		<polygon id="XMLID_52_" class="st4" points="-74.6,434.8 -87.3,434.8 -74.1,421.7 -61.4,421.7 		"/>
		<polygon id="XMLID_51_" class="st4" points="-74.1,421.9 -61.4,421.9 -74.6,408.9 -87.3,408.9 		"/>
	</g>
	<g>
		<path d="M-50.2,407.4h1.4v11.5h-2.7v-10.3h-3c2.5-2.6,4.2-5.7,5.5-8.7h2.8C-47.2,402.5-48.5,405-50.2,407.4z M-51.1,399.6h-3.3
			c2.1-2.1,3.4-4.6,4.7-7h3C-47.8,395-49.3,397.4-51.1,399.6z M-46.9,418.8v-2.1h8v-8.1h-6.7v-2.2h6.7v-7.5h-7.4v-2.1h6.9
			c-0.4-0.9-1.3-3.1-1.5-4.2h2.8c0.3,1.3,1.1,3.4,1.6,4.2h7.5v2.1h-7.1v7.5h6.4v2.1h-6.4v8.2h7.8v2.1H-46.9z"/>
		<path d="M-4.1,418.8c-2.7-1.6-5.6-4.3-7.1-7.1c-1.5,3-4,5.2-7.3,7.1h-6c4.7-1.8,9.2-4.4,11.3-9h-11.2v-2.1h11.6
			c0.1-0.7,0.2-1.9,0.1-2.5h2.8c-0.1,0.9-0.1,1.7-0.3,2.5H1.7v2.1H-9.6c2.4,4.6,7.1,7.3,11.7,9H-4.1z M-20.2,402.3h-3.6
			c1.9-2.3,3.3-5.4,4.1-7.7h3.1C-17.5,397.3-18.6,399.9-20.2,402.3z M-10.5,403.8c-0.5,0.5-1.1,0.7-2.1,0.7h-3.3l-1.1-2.1h3.8
			c0.4,0,0.6-0.3,0.6-0.7v-9h2.8v9.4C-9.9,402.8-10.1,403.4-10.5,403.8z M-2.7,402.3c-1.5-2.4-2.6-5-3.4-7.7h2.8
			c1,2.7,2.2,5.3,4,7.7H-2.7z"/>
		<path d="M9.5,417.9H5.5c2.5-1.7,4.6-4.3,6.1-6.7h3.4C13.5,413.6,11.8,416,9.5,417.9z M20,396.8v2h7.5c0.8,0,1.5,0.3,2,0.7
			c0.5,0.5,0.8,1.2,0.8,2v5.5c0,0.8-0.3,1.5-0.8,1.9c-0.5,0.5-1.3,0.8-2.2,0.8H20v9h-2.7v-9H9.7c-0.7,0-1.3-0.3-1.8-0.7
			c-0.5-0.5-0.8-1.2-0.8-1.8v-5.8c0-0.7,0.3-1.5,0.9-2c0.5-0.4,1-0.7,1.8-0.7h7.6v-2H5.6v-2.1h11.7v-2.1H20v2.1h11.7v2.1H20z
			 M17.3,400.9h-6.7c-0.5,0-0.8,0.4-0.8,0.8v1.5h7.6V400.9z M17.3,405.3H9.8v1.8c0,0.5,0.4,0.8,0.9,0.8h6.7V405.3z M27.6,401.6
			c0-0.4-0.3-0.7-0.9-0.7H20v2.4l7.6,0V401.6z M27.6,405.3H20v2.5h6.8c0.4,0,0.8-0.3,0.8-0.8V405.3z M28,417.9
			c-2.3-2-3.9-4.4-5.3-6.7h3.4c1.4,2.4,3.7,5.3,6.1,6.7H28z"/>
		<path d="M39.9,410.5c-0.4,1.5-0.3,3.1,0.2,4.5c0.5,1.4,1.3,2.7,2.4,3.9h-1.8c-0.8-1.1-1.5-2.3-1.9-3.6c-0.5-1.6-0.6-3.3-0.2-5.1
			c0.4-1.5,1.2-2.8,2.2-4.1h1.8C41.3,407.4,40.3,408.9,39.9,410.5z"/>
		<path d="M46,406.9c-0.2,0-0.4,0.2-0.4,0.3v4.6c0,1.7-0.1,4.3-0.6,6.2h-1.4c0.7-2.2,0.7-5.2,0.7-7v-3.8c0-0.4,0.1-0.7,0.3-0.9
			c0.2-0.2,0.6-0.4,0.9-0.4h4c-0.1-0.2-0.3-0.7-0.4-1h1.5c0.1,0.3,0.3,0.7,0.5,1h5.6v1H46z M46.9,411.9h-1.2
			c0.3-0.7,0.5-1.7,0.6-2.5h1.2C47.4,410.2,47.2,411.1,46.9,411.9z M49.1,409v3.2h-1.3V409H46v-1h1.8v-0.7h1.3v0.7h1.8v1H49.1z
			 M54.8,417.9c-0.2-0.2-0.5-0.6-0.7-0.8l-0.5,0.8h-6.8c-0.3,0-0.5-0.1-0.6-0.3c-0.1-0.2,0-0.6,0.3-0.8l2.8-1.7H47
			c-0.3,0-0.5-0.2-0.6-0.5c-0.1-0.3,0-0.6,0.3-0.8l2.7-1.8h2.1l-3.1,2H51l2.2-1.4h2.2l-6.6,4.1H54c-0.4-0.5-0.9-1.3-1.2-1.8h1.5
			c0.6,0.9,1.7,1.9,2.6,2.8H54.8z M49.6,411.7v-2.3h1v2.3H49.6z M52,411.7h-1.2c0.3-0.6,0.5-1.6,0.6-2.3h1.1
			C52.5,410,52.3,410.9,52,411.7z M54.2,409v3.2h-1.3V409h-1.7v-1h1.7v-0.7h1.3v0.7h2.3v1H54.2z M56.5,412.1h-0.8
			c-0.3,0-0.6-0.1-0.8-0.3c-0.2-0.2-0.3-0.4-0.3-0.7v-1.7h1.2v1.5c0,0.1,0.1,0.2,0.2,0.2h0.8L56.5,412.1z"/>
		<path d="M58.8,416.5v-1.2c0.4-0.1,1.1-0.4,1.4-0.5v-5.5h-1.5v-1.1h1.5V405h1.3v3.2h1.5v1.1h-1.5v5c0.5-0.2,1.4-0.6,1.9-0.8v1.2
			C62.3,415.2,60,416.1,58.8,416.5z M71.4,418h-6.1c-0.3,0-0.7-0.2-0.9-0.4c-0.2-0.2-0.3-0.6-0.3-0.9v-5.9l-1.1,0.3V410l1.1-0.3v-3
			h1.3v2.5l1.7-0.5V405h1.3v3.3l1.7-0.5c0.3-0.1,0.7,0,0.9,0.2c0.3,0.2,0.4,0.6,0.4,1v4.4c0,0.4-0.2,0.7-0.4,0.9
			c-0.2,0.2-0.6,0.3-0.9,0.3h-1l-0.4-1h1c0.1,0,0.3-0.1,0.3-0.3v-4.2c0-0.1-0.1-0.2-0.2-0.1l-1.6,0.5v6.2h-1.3v-5.8l-1.7,0.5v6.3
			c0,0.2,0.2,0.4,0.4,0.4h6.2L71.4,418z"/>
		<path d="M86.4,418.1h-7.2c-0.6,0-1.1-0.1-1.5-0.3c-0.6-0.2-1.1-0.6-1.5-1.1c-0.2,0.4-0.6,1-0.9,1.4h-1.6c1.1-1.4,2-3.1,2.5-4.7
			c0-0.1,0-0.2-0.1-0.2h-1.5c-0.3,0-0.5-0.1-0.6-0.3c-0.1-0.2-0.1-0.4,0.1-0.7c0.6-0.8,1.2-1.8,1.6-2.5c0.1-0.1,0-0.2-0.1-0.2h-1.8
			v-1h2.5c0.4,0,0.7,0.2,0.8,0.4c0.2,0.2,0.2,0.5,0,0.9c-0.4,0.9-1,1.7-1.5,2.5h0.9c0.3,0,0.6,0.1,0.8,0.2c0.2,0.2,0.3,0.5,0.2,0.9
			c-0.2,0.8-0.6,1.6-0.9,2.5c0.4,0.6,0.9,0.9,1.5,1.1c0.6,0.2,1.2,0.2,1.8,0.2h7L86.4,418.1z M75.7,407.6c-0.6-0.8-1.1-1.8-1.5-2.7
			h1.5c0.4,0.9,1,1.9,1.6,2.7H75.7z M82.8,407.3c-0.1,0.3-0.3,0.8-0.4,1.1h2.3c0.4,0,0.8,0.2,1,0.5c0.2,0.3,0.4,0.6,0.4,0.9v5
			c0,0.4-0.1,0.7-0.3,1c-0.2,0.3-0.6,0.4-1,0.4h-5.4c-0.4,0-0.7-0.2-1-0.5c-0.2-0.3-0.3-0.6-0.3-0.9v-5.1c0-0.4,0.2-0.8,0.5-1
			c0.2-0.2,0.6-0.4,1-0.4h1.5c0.2-0.3,0.3-0.8,0.4-1.1h-3.9v-1h2.3c-0.1-0.3-0.4-1-0.5-1.4h1.4c0.1,0.4,0.4,1.1,0.6,1.4h1.5
			c0.3-0.4,0.6-0.9,0.8-1.4H85c-0.2,0.4-0.5,1.1-0.8,1.4h2.5v1H82.8z M84.7,409.9c0-0.2-0.2-0.4-0.4-0.4h-4.5
			c-0.2,0-0.4,0.2-0.4,0.4v0.7h5.3V409.9z M84.7,411.6h-5.3v1.2h5.3V411.6z M84.7,413.8h-5.3v1c0,0.2,0.2,0.4,0.5,0.4h4.5
			c0.2,0,0.4-0.2,0.4-0.4V413.8z"/>
		<path d="M89.7,406.1c1,1.2,1.8,2.6,2.2,4.1c0.4,1.7,0.3,3.5-0.2,5.1c-0.4,1.3-1.1,2.6-1.9,3.6h-1.8c1-1.2,1.9-2.5,2.4-3.9
			c0.5-1.5,0.5-3.1,0.2-4.5c-0.4-1.6-1.4-3-2.6-4.4H89.7z"/>
	</g>
	<g>
		<path d="M-53.5,436.2v9.7h-1.4v-9.7h-3.7v-1.1h8.8v1.1H-53.5z"/>
		<path d="M-43.9,445.7c-0.9,0.4-2.1,0.3-3-0.1s-1.6-1.1-1.9-2c-0.3-1.1-0.3-2.6,0.1-3.6c0.4-0.9,1.2-1.6,2.2-1.9
			c1-0.3,2.1-0.2,3,0.3c0.9,0.5,1.3,1.1,1.6,2.1c0.3,1,0.3,2.1,0,3.1C-42.2,444.5-43,445.3-43.9,445.7z M-45.6,439
			c-0.8,0-1.7,0.6-1.9,1.4c-0.3,0.9-0.3,2,0,3c0.2,0.8,0.9,1.4,1.7,1.5c0.9,0.1,1.9-0.1,2.3-1c0.5-1.1,0.5-2.7,0.1-3.8
			C-43.8,439.3-44.7,438.9-45.6,439z"/>
		<path d="M-31.7,436.2v9.7H-33v-9.7h-3.7v-1.1h8.8v1.1H-31.7z"/>
		<path d="M-21.4,445.2c-0.6,0.6-1.6,0.8-2.4,0.8c-0.8,0-1.6-0.1-2.3-0.6c-0.6-0.5-1-1.3-1.2-2h1.4c0.1,0.5,0.3,1,0.6,1.3
			c0.4,0.3,1,0.3,1.5,0.3c0.5,0,1-0.2,1.4-0.5c0.2-0.2,0.3-0.5,0.3-0.9c0-0.4-0.3-0.6-0.6-0.8c-0.5-0.2-1.8-0.6-2.5-0.8
			c-0.5-0.1-1.2-0.5-1.5-1c-0.3-0.5-0.3-1.2-0.1-1.7c0.3-0.6,0.9-1.1,1.4-1.2c1-0.3,2.2-0.3,3.1,0.2c0.8,0.4,1.2,1.1,1.4,2h-1.5
			c-0.1-0.5-0.4-1-0.9-1.2c-0.5-0.2-1.5-0.2-2,0.2c-0.3,0.2-0.5,0.6-0.4,1c0.1,0.3,0.6,0.5,0.8,0.6c0.9,0.2,2.2,0.6,3,1
			c0.6,0.3,1.1,1,1.1,1.6C-20.7,444.1-21,444.7-21.4,445.2z"/>
		<path d="M-18.9,436.5v-1.4h1.4v1.4H-18.9z M-18.9,445.8V438h1.4v7.8H-18.9z"/>
		<path d="M-5.9,445.8v-5.4c0-0.4-0.1-0.9-0.5-1.2c-0.4-0.3-1.1-0.4-1.6-0.2c-0.6,0.2-1.1,0.6-1.4,1.2v5.7h-1.3v-5.5
			c0-0.6-0.3-1.2-0.9-1.4c-0.5-0.2-1-0.1-1.5,0.2c-0.5,0.3-0.9,0.8-1,1.3v5.4h-1.3V438h1.3v0.9c0.4-0.5,0.9-0.9,1.5-1
			c0.5-0.1,1.1-0.1,1.7,0.1c0.5,0.2,0.9,0.5,1.2,1c0.5-0.7,1.2-1,2-1.1c0.8-0.1,1.7,0,2.3,0.6c0.5,0.5,0.7,1.1,0.7,1.9v5.5H-5.9z"/>
		<path d="M7.9,438.1c-0.1-0.5-0.2-1-0.5-1.4c-0.3-0.4-0.7-0.5-1.2-0.6c-0.8-0.2-1.7-0.1-2.4,0.1c-0.5,0.1-1,0.5-1.2,1
			c-0.2,0.4-0.2,1,0.1,1.5c0.2,0.4,0.7,0.6,1.2,0.7c1.3,0.3,2.7,0.6,3.7,0.9c0.6,0.2,1.2,0.6,1.6,1.2c0.4,0.7,0.4,1.7,0.1,2.4
			C9,444.5,8.6,445,8,445.3c-1,0.6-2.3,0.7-3.6,0.6c-1-0.1-2-0.4-2.7-1.1c-0.6-0.6-0.9-1.5-1.1-2.4h1.4c0.1,0.7,0.4,1.4,1,1.8
			c0.6,0.4,1.3,0.6,2,0.6c0.7,0,1.7-0.1,2.3-0.5c0.5-0.3,0.8-0.9,0.8-1.5c0-0.7-0.4-1.2-1-1.5c-0.6-0.3-1.9-0.5-2.8-0.7
			c-0.8-0.1-1.9-0.5-2.4-1c-0.7-0.6-0.9-1.6-0.6-2.4c0.2-0.7,0.7-1.4,1.4-1.8c1-0.6,2.9-0.6,4.1-0.4c0.7,0.2,1.4,0.6,1.9,1.3
			c0.4,0.5,0.5,1.1,0.7,1.8H7.9z"/>
		<path d="M16,445.8v-5.2c0-0.6-0.3-1.1-0.7-1.4c-0.5-0.3-1.1-0.3-1.7-0.2c-0.7,0.2-1.4,0.8-1.6,1.5v5.3h-1.3v-10.7H12v3.8
			c0.6-0.6,1.3-0.9,2.1-1c0.8-0.1,1.8,0.1,2.4,0.6c0.5,0.5,0.9,1.2,0.9,1.9v5.4H16z"/>
		<path d="M24.5,445.8c-0.1-0.3-0.3-0.7-0.3-1c-0.7,0.6-1.5,1.1-2.4,1.2c-0.6,0.1-1.4,0-1.9-0.3c-0.5-0.3-0.9-0.7-1-1.2
			c-0.2-0.6-0.2-1.2,0-1.7c0.2-0.6,0.7-1,1.4-1.2c0.5-0.2,1.3-0.3,1.9-0.3c0.7-0.1,1.5-0.3,1.9-0.7c0-0.3,0-0.8-0.3-1.1
			c-0.3-0.3-0.7-0.4-1.1-0.5c-0.5-0.1-1.2,0-1.7,0.2c-0.5,0.2-0.8,0.6-0.9,1.1h-1.4c0.1-0.8,0.8-1.6,1.6-2c0.7-0.3,1.7-0.5,2.4-0.4
			c0.8,0,1.6,0.3,2.2,0.8c0.5,0.5,0.6,1.1,0.6,1.9c0,1,0,2.3,0,3c0,0.8,0.3,1.7,0.6,2.3H24.5z M24,441.7c-0.5,0.3-1.2,0.5-1.7,0.5
			c-0.5,0-1,0.1-1.4,0.2c-0.4,0.1-0.6,0.3-0.7,0.6c-0.1,0.3-0.1,0.7,0,1c0.1,0.3,0.4,0.6,0.8,0.7c0.3,0.1,0.6,0.1,1,0
			c0.9-0.2,1.7-0.6,2.2-1.4C24,442.9,24,442.2,24,441.7z"/>
		<path d="M36,436.2v9.7h-1.4v-9.7h-3.7v-1.1h8.8v1.1H36z"/>
		<path d="M46.3,445.2c-0.6,0.6-1.6,0.8-2.4,0.8c-0.8,0-1.6-0.1-2.3-0.6c-0.6-0.5-1-1.3-1.2-2h1.4c0.1,0.5,0.3,1,0.6,1.3
			c0.4,0.3,1,0.3,1.5,0.3c0.5,0,1-0.2,1.4-0.5c0.2-0.2,0.3-0.5,0.3-0.9c0-0.4-0.3-0.6-0.6-0.8c-0.5-0.2-1.8-0.6-2.5-0.8
			c-0.5-0.1-1.2-0.5-1.5-1c-0.3-0.5-0.3-1.2-0.1-1.7c0.3-0.6,0.9-1.1,1.4-1.2c1-0.3,2.2-0.3,3.1,0.2c0.8,0.4,1.2,1.1,1.4,2h-1.5
			c-0.1-0.5-0.4-1-0.9-1.2c-0.5-0.2-1.5-0.2-2,0.2c-0.3,0.2-0.5,0.6-0.4,1c0.1,0.3,0.6,0.5,0.8,0.6c0.9,0.2,2.2,0.6,3,1
			c0.6,0.3,1.1,1,1.1,1.6C47,444.1,46.7,444.7,46.3,445.2z"/>
		<path d="M53.5,445.8v-1c-0.4,0.6-1.1,1-1.8,1.1c-0.8,0.1-1.6,0-2.2-0.5c-0.6-0.5-1-1.2-1-2.1V438h1.4v5.5c0,0.5,0.2,1,0.6,1.2
			c0.4,0.2,0.9,0.3,1.3,0.1c0.8-0.2,1.5-0.8,1.8-1.5V438h1.4l0,7.8H53.5z"/>
		<path d="M57.2,436.5v-1.4h1.4v1.4H57.2z M57.2,445.8V438h1.4v7.8H57.2z"/>
		<path d="M62.9,442.7c-0.2,0.7-0.2,1.4,0.1,2.1c0.2,0.7,0.6,1.3,1.1,1.8h-0.8c-0.4-0.5-0.7-1.1-0.9-1.7c-0.2-0.8-0.3-1.6-0.1-2.4
			c0.2-0.7,0.5-1.3,1-1.9h0.8C63.5,441.2,63.1,441.9,62.9,442.7z"/>
		<path d="M68.7,445.8v-3.5l-1.5,3.5h-0.5l-1.5-3.5v3.5h-0.6v-5h0.6l1.8,4.1l1.8-4.1h0.6v5H68.7z"/>
		<path d="M72.3,445.8c-0.4,0.2-1,0.2-1.4,0c-0.4-0.2-0.7-0.5-0.9-1c-0.2-0.5-0.1-1.2,0.1-1.7c0.2-0.4,0.5-0.7,1-0.9
			c0.5-0.1,1-0.1,1.4,0.1c0.4,0.2,0.6,0.5,0.7,1c0.1,0.5,0.1,1,0,1.5C73.1,445.2,72.7,445.6,72.3,445.8z M71.5,442.6
			c-0.4,0-0.8,0.3-0.9,0.7c-0.1,0.4-0.1,1,0,1.4c0.1,0.4,0.4,0.7,0.8,0.7c0.4,0.1,0.9-0.1,1.1-0.5c0.3-0.5,0.2-1.2,0-1.8
			C72.4,442.8,72,442.6,71.5,442.6z"/>
		<path d="M76.4,445.8v-0.4c-0.3,0.3-0.5,0.4-0.9,0.5c-0.3,0-0.6,0-0.9-0.2c-0.3-0.2-0.5-0.4-0.6-0.7c-0.2-0.6-0.3-1.4,0-2
			c0.1-0.3,0.4-0.6,0.7-0.8c0.3-0.2,0.6-0.2,0.9-0.1c0.3,0.1,0.6,0.3,0.7,0.5v-1.8H77v5H76.4z M75.4,442.6c-0.4,0-0.7,0.3-0.8,0.6
			c-0.2,0.5-0.1,1.2,0,1.7c0.1,0.3,0.4,0.5,0.7,0.5c0.3,0,0.6-0.1,0.8-0.4c0.4-0.5,0.3-1.3,0.1-1.8
			C76.1,442.9,75.7,442.6,75.4,442.6z"/>
		<path d="M79.2,446.8c-0.1,0.1-0.2,0.3-0.3,0.3c-0.1,0.1-0.3,0.1-0.4,0.1H78l-0.3-0.5h0.6c0.1,0,0.2-0.1,0.3-0.2l0.4-0.9l-1.5-3.5
			h0.7l1.1,2.6l1.1-2.6h0.7L79.2,446.8z"/>
		<path d="M87.1,445.8c-0.2-0.3-0.5-0.8-0.8-1.3c-0.2-0.4-0.7-0.9-1.1-1h-1.1v2.3h-0.6v-4.4c0-0.2,0.1-0.3,0.2-0.4
			c0.1-0.1,0.3-0.2,0.5-0.2h2.1c0.4,0,0.7,0.2,0.9,0.5c0.2,0.3,0.3,0.6,0.3,0.9c0,0.3-0.1,0.6-0.3,0.8c-0.2,0.3-0.6,0.4-0.9,0.4
			c0.3,0.2,0.5,0.5,0.7,0.8c0.3,0.6,0.7,1.2,1.1,1.6H87.1z M86.6,441.6c-0.1-0.2-0.3-0.3-0.5-0.3h-1.8c-0.1,0-0.2,0.1-0.2,0.2v1.5
			H86c0.2,0,0.4-0.1,0.6-0.2c0.1-0.1,0.2-0.3,0.2-0.5C86.8,442,86.8,441.7,86.6,441.6z"/>
		<path d="M90.8,445.8v-0.4c-0.3,0.3-0.5,0.4-0.9,0.5c-0.3,0-0.6,0-0.9-0.2c-0.3-0.2-0.5-0.4-0.6-0.7c-0.2-0.6-0.3-1.4,0-2
			c0.1-0.3,0.4-0.6,0.7-0.8c0.3-0.2,0.6-0.2,0.9-0.1c0.3,0.1,0.6,0.3,0.7,0.5v-1.8h0.6v5H90.8z M89.8,442.6c-0.4,0-0.7,0.3-0.8,0.6
			c-0.2,0.5-0.1,1.2,0,1.7c0.1,0.3,0.4,0.5,0.7,0.5c0.3,0,0.6-0.1,0.8-0.4c0.4-0.5,0.3-1.3,0.1-1.8
			C90.5,442.9,90.2,442.6,89.8,442.6z"/>
		<path d="M92.5,445.8v-0.7h0.7v0.7H92.5z"/>
		<path d="M94.7,440.6c0.5,0.6,0.8,1.2,1,1.9c0.2,0.8,0.2,1.6-0.1,2.4c-0.2,0.6-0.5,1.2-0.9,1.7h-0.8c0.5-0.6,0.9-1.1,1.1-1.8
			c0.2-0.7,0.3-1.4,0.1-2.1c-0.2-0.8-0.6-1.4-1.2-2H94.7z"/>
	</g>
</g>
<g id="XMLID_1_">
</g>
<g id="XMLID_124_">
</g>
<g id="XMLID_125_">
</g>
<g id="XMLID_126_">
</g>
<g id="XMLID_127_">
</g>
<g id="XMLID_128_">
</g>
</svg>
