<?xml version="1.0" encoding="utf-8"?>
<!-- Generator: Adobe Illustrator 19.0.0, SVG Export Plug-In . SVG Version: 6.00 Build 0)  -->
<svg version="1.1" id="圖層_1" xmlns="http://www.w3.org/2000/svg" xmlns:xlink="http://www.w3.org/1999/xlink" x="0px" y="0px"
	 viewBox="-112.7 -35.4 272.1 85" style="enable-background:new -112.7 -35.4 272.1 85;" xml:space="preserve">
<style type="text/css">
	.st0{fill:url(#XMLID_66_);}
	.st1{fill:#ECECEC;}
	.st2{fill:#0079C4;}
	.st3{fill:url(#XMLID_67_);}
	.st4{fill:#FF0000;}
</style>
<g id="XMLID_1_">
</g>
<g id="XMLID_124_">
</g>
<g id="XMLID_125_">
</g>
<g id="XMLID_126_">
</g>
<g id="XMLID_127_">
</g>
<g id="XMLID_128_">
</g>
<radialGradient id="XMLID_66_" cx="23.4222" cy="26.8894" r="100.9042" gradientTransform="matrix(0.9998 0 0 -0.9905 -2.640000e-002 33.8007)" gradientUnits="userSpaceOnUse">
	<stop  offset="0.2193" style="stop-color:#00FF00;stop-opacity:0"/>
	<stop  offset="1" style="stop-color:#035353"/>
</radialGradient>
<path id="XMLID_27_" class="st0" d="M148.1,49.7h-249.5c-6.3,0-11.3-5.1-11.3-11.3V-24c0-6.3,5.1-11.3,11.3-11.3h249.5
	c6.3,0,11.3,5.1,11.3,11.3v62.4C159.5,44.6,154.4,49.7,148.1,49.7z"/>
<path id="XMLID_26_" class="st1" d="M143.2,44.6H-96.4c-5.7,0-10.4-4.7-10.4-10.4v-54.2c0-5.7,4.7-10.4,10.4-10.4h239.6
	c5.7,0,10.4,4.7,10.4,10.4v54.2C153.6,40,148.9,44.6,143.2,44.6z"/>
<g id="XMLID_11_">
	<path id="XMLID_20_" class="st2" d="M-80.3,6.8c-0.9,0.3-1.7,0.4-2.5,0.8c-1.6,0.8-2.4,2.2-2.5,4c-0.1,2.3,0.9,4,2.5,5.4
		c1.4,1.3,3,2.3,4.6,3.1c0.3,0.1,0.6,0.3,0.9,0.3c0.9,0.1,1.4-0.1,1.7-0.9c0.4-1,0.7-2,0.9-3.1c0.5-2.8,1-5.7,1.4-8.6
		c0.3-1.8,0.4-3.7,0.5-5.5c0-0.4-0.1-0.7-0.5-0.9c-2.6-1.4-4.9-3.1-7-5.2c-2.2-2.3-3.8-5-4.4-8.2c-0.5-2.9-0.3-5.6,1.6-8.1
		c1.9-2.5,4.4-4.2,7.6-4.6c1-0.1,2.1,0.1,3.2,0.2c0.3,0,0.6,0,0.9-0.1c2.3-0.9,4.7,0.5,5.1,2.9c0.3,1.7-0.9,3.3-2.1,3.8
		c-0.3,0.2-0.5,0.3-0.5,0.7c-0.1,1.7-0.2,3.3-0.2,5c-0.1,2.9-0.1,5.9-0.1,8.8c0,0.4,0.1,0.5,0.5,0.7c2.3,0.8,4.6,1.5,6.8,2.4
		c3.7,1.6,7.2,3.5,10.2,6.2c1.8,1.6,3.3,3.5,4.3,5.7c1.3,2.8,1.2,5.7,0.3,8.5c-0.7,2.2-1.8,4.2-3.1,6.1c-0.2,0.3-0.3,0.3-0.6,0.1
		c-2.2-1.1-4.3-2.3-6.7-2.9c-1.6-0.4-3.2-0.7-4.9-0.6c-1.6,0.1-3.2,0.5-4.7,1c-0.9,0.3-1.8,0.6-2.8,0.8c-1.2,0.2-2.5,0.2-3.7-0.2
		c-1.1-0.4-2.2-0.7-3.3-1.1c-2.8-0.8-5.5-0.7-8.3,0.1c-2.1,0.6-4.1,1.6-6,2.6c-0.5,0.3-0.5,0.3-0.8-0.2c-1.5-3-2.2-6.2-1.9-9.6
		c0.4-4.2,2.4-7.5,6-9.8c1.8-1.2,3.8-1.4,5.9-0.9C-81.4,5.8-80.8,6.3-80.3,6.8z M-72.4-3.9c0.1-1,0.1-1.9,0.2-2.8
		C-72.1-7.8-72-9-72-10.3c0.1-2.4,0.2-4.8,0.3-7.1c0-0.2-0.1-0.5-0.3-0.6c-0.9-0.7-1.6-1.5-1.7-2.7c0-0.2-0.2-0.4-0.4-0.4
		c-0.6-0.3-1.3-0.4-2-0.2c-2.3,0.5-4.1,1.8-5,4c-1,2.5-0.5,4.9,0.9,7c1.8,2.8,4.4,4.7,7.3,6.2C-72.7-4-72.6-4-72.4-3.9z M-69.1,3.5
		c0,0.1,0,0.2,0,0.3c0,1.2,0,2.4,0.1,3.6c0.1,1.1,0.1,2.1,0.3,3.2c0.3,2.2,0.6,4.5,0.9,6.7c0.1,0.7,0.3,1.4,0.5,2.1
		c0.2,0.7,0.7,0.8,1.4,0.4c0.2-0.2,0.4-0.3,0.6-0.5c1-1.1,1.6-2.4,2.1-3.8c0.8-2.4,0.9-4.7-0.4-7c-1.2-2.2-3-3.7-5.1-4.9
		C-68.9,3.5-69,3.5-69.1,3.5z M-71.4,20.4c0.1-0.1,0.1-0.1,0.2-0.2c0.1-0.1,0.1-0.2,0.2-0.3c0.5-1,0.5-2.1,0.5-3.1
		c-0.1-2.9-0.2-5.7-0.3-8.6C-70.9,6.4-71,4.7-71,3c0-0.1-0.1-0.2-0.1-0.2c-0.1,0.2-0.1,0.3-0.2,0.5c-0.1,1-0.1,2-0.2,3
		c-0.1,1.8-0.2,3.5-0.3,5.3c-0.1,1.1-0.1,2.1-0.2,3.2c-0.1,1.3-0.1,2.6-0.1,4C-72.1,19.3-71.8,19.9-71.4,20.4z M-68.8-21.2
		c0-0.8-0.5-1.3-1.3-1.3c-0.8,0-1.3,0.6-1.3,1.3c0,0.7,0.5,1.3,1.3,1.3C-69.3-20-68.8-20.5-68.8-21.2z"/>
	<path id="XMLID_19_" class="st2" d="M-85.7,33.5c1.5-0.7,2.9-1.2,4.3-1.4c2-0.3,3.9,0.2,5.7,0.8c1.3,0.5,2.6,0.8,4,0.9
		c1.3,0,2.5-0.2,3.8-0.6c1.1-0.4,2.2-0.7,3.4-1c1.8-0.4,3.5-0.2,5.2,0.4c0.7,0.2,1.3,0.5,2.1,0.8c-0.2,0.2-0.4,0.3-0.5,0.4
		c-3.5,2.5-7.3,4.4-11.5,5.6c-0.8,0.2-1.5,0.4-2.3,0.5c-0.4,0-0.7-0.1-1.1-0.2c-3.9-1.1-7.5-2.6-10.9-4.7
		C-84.2,34.6-84.9,34.1-85.7,33.5z"/>
	<path id="XMLID_13_" class="st2" d="M-90.8,28.1c0.5-0.2,0.8-0.4,1.2-0.6c1.9-1,3.8-1.9,5.9-2.3c2.3-0.5,4.5-0.4,6.8,0.4
		c1.2,0.4,2.4,0.8,3.6,1.1c1.8,0.4,3.6,0.2,5.4-0.4c1.2-0.4,2.3-0.8,3.5-1.1c2.5-0.6,5-0.4,7.3,0.6c1.8,0.7,3.5,1.5,5.4,2.4
		c-0.4,0.5-0.8,0.9-1.1,1.2c-0.1,0.1-0.3,0-0.4-0.1c-1.3-0.6-2.6-1.3-4-1.8c-3.4-1.3-6.8-1.2-10.2,0c-1,0.4-2,0.6-3,0.8
		c-1.2,0.3-2.3,0-3.4-0.3c-1.4-0.4-2.8-0.9-4.2-1.2c-2.3-0.5-4.7-0.3-6.9,0.5c-1.6,0.6-3.1,1.3-4.6,2c-0.3,0.1-0.5,0.2-0.7-0.2
		C-90.4,28.8-90.6,28.5-90.8,28.1z"/>
	<path id="XMLID_12_" class="st2" d="M-54.2,30.9c-0.4,0.4-0.8,0.8-1.2,1.1c-0.1,0.1-0.3,0-0.5,0c-1.3-0.5-2.6-1-4-1.4
		c-2.4-0.7-4.8-0.4-7.2,0.5c-1.1,0.4-2.3,0.7-3.5,0.9c-1.1,0.2-2.1,0-3.1-0.3c-1.3-0.4-2.5-0.8-3.8-1.1c-2.1-0.5-4.3-0.3-6.3,0.4
		c-1,0.3-2.1,0.8-3.1,1.2c-0.2,0.1-0.4,0.1-0.6-0.1c-0.3-0.3-0.7-0.6-1.1-1c0.1,0,0.2-0.1,0.2-0.1c1.8-0.9,3.6-1.7,5.5-2.2
		c2.2-0.5,4.3-0.3,6.4,0.5c1.1,0.4,2.3,0.8,3.5,1c1.4,0.2,2.9,0.2,4.3-0.2c1.4-0.4,2.7-0.9,4.1-1.2c2.1-0.5,4.2-0.3,6.2,0.4
		c1.3,0.5,2.5,1.1,3.8,1.6C-54.5,30.7-54.4,30.8-54.2,30.9z"/>
</g>
<g id="XMLID_7_">
	
		<linearGradient id="XMLID_67_" gradientUnits="userSpaceOnUse" x1="-59.9109" y1="26.5232" x2="-18.3069" y2="26.5232" gradientTransform="matrix(1 0 0 -1 -3.266449e-006 34.06)">
		<stop  offset="0" style="stop-color:#FF0000;stop-opacity:0"/>
		<stop  offset="0.3" style="stop-color:#FF0000"/>
	</linearGradient>
	<rect id="XMLID_10_" x="-59.9" y="2.9" class="st3" width="41.6" height="9.2"/>
	<polygon id="XMLID_9_" class="st4" points="-26.3,20.6 -39,20.6 -25.8,7.5 -13.1,7.5 	"/>
	<polygon id="XMLID_8_" class="st4" points="-25.8,7.7 -13.1,7.7 -26.3,-5.3 -39,-5.3 	"/>
</g>
<g id="XMLID_6_">
	<path id="XMLID_43_" d="M27.8-6.8h1.4V4.7h-2.7V-5.6h-3c2.5-2.6,4.2-5.7,5.5-8.7h2.8C30.8-11.7,29.4-9.2,27.8-6.8z M26.9-14.5h-3.3
		c2.1-2.1,3.4-4.6,4.7-7h3C30.1-19.1,28.6-16.7,26.9-14.5z M31,4.7V2.6h8v-8.1h-6.7v-2.2h6.7v-7.5h-7.4v-2.1h6.9
		c-0.4-0.9-1.3-3.1-1.5-4.2h2.8c0.3,1.3,1.1,3.4,1.6,4.2H49v2.1h-7.1v7.5h6.4v2.1h-6.4v8.2h7.8v2.1H31z"/>
	<path id="XMLID_47_" d="M56.3,4.7h-2.9c1-2.8,2.4-7.7,2.7-10.8h2.6C58.3-3.3,57.2,1.8,56.3,4.7z M56.1-15.2c-0.7-1.4-2-4.5-2.6-6.3
		h2.8c0.4,1.6,1.8,4.6,2.8,6.3H56.1z M56-7.6c-0.8-1.6-2-4.8-2.5-6.6h2.7c0.4,1.8,1.8,4.9,2.8,6.6H56z M60.8-8.4h-1.7
		c0.3-1,0.6-3,0.7-4.3h1.5C61.2-11.4,61.1-9.5,60.8-8.4z M75.5-15h2.1c-0.1-0.4-0.3-1.2-0.4-1.5h1.6c0.1,0.8,0.5,2.3,0.9,3.1h-1.7
		c-0.1-0.3-0.3-0.9-0.4-1.2l-0.7,1.2H74c-0.6,0-0.9-0.3-1-0.6s0-0.8,0.4-1.2c0.6-0.6,1.5-1.6,1.9-2.1h-1c-0.3,0-0.5-0.1-0.7-0.2
		c-0.2-0.1-0.4-0.4-0.4-0.7h-7.1v-0.7c-0.9,0.9-2.9,3-4,4h2.1c-0.1-0.4-0.2-1-0.3-1.5h1.7c0.1,0.8,0.5,2.2,0.8,3h-1.7
		c-0.1-0.2-0.3-0.8-0.4-1l-0.7,1h-3.3c-0.4,0-0.7-0.2-0.8-0.5c-0.2-0.3-0.1-0.7,0.2-0.9c0.7-0.7,1.7-1.8,2.3-2.4h-1.4
		c-0.4,0-0.8-0.2-0.9-0.5c-0.2-0.3-0.2-0.8,0.1-1.1c0.6-0.6,1.9-1.9,2.5-2.6h2.5c-0.7,0.8-2,2.2-2.7,2.9h1.3
		c0.2-0.2,0.6-0.6,0.8-0.8h1.9V-20h2.3c-0.1-0.4-0.3-1.2-0.4-1.6h2.4c0,0.4,0.2,1.2,0.4,1.6h2.6v0.8c0.6-0.6,1.6-1.8,2.1-2.5h2.3
		c-0.5,0.7-1.7,2.2-2.4,2.9h1.2c0.3-0.3,0.8-0.9,1.1-1.2h2.3C78.8-18.7,76.9-16.5,75.5-15z M78.5,4c-0.4,0.4-1,0.8-1.7,0.8h-8.2
		l-1.1-1.9h8.3c0.2,0,0.5-0.3,0.5-0.6V1.6c0-0.3-0.2-0.6-0.5-0.6H62.5c-0.6,0-1.1-0.2-1.5-0.5c-0.3-0.3-0.5-0.8-0.5-1.4v-1
		c0-0.8,0.3-1.3,0.8-1.7c0.4-0.3,0.9-0.4,1.6-0.4h12.6c0.3,0,0.5-0.3,0.5-0.6V-5c0-0.3-0.2-0.5-0.5-0.5H60.2v-1.7h16.5
		c0.7,0,1.2,0.2,1.6,0.5c0.3,0.3,0.5,0.7,0.5,1.2v1.3c0,0.6-0.2,1-0.6,1.4c-0.4,0.3-0.9,0.5-1.5,0.5h-13c-0.2,0-0.5,0.2-0.5,0.5v0.5
		c0,0.3,0.2,0.5,0.5,0.5H77c0.6,0,1,0.2,1.3,0.5C78.8,0.1,79,0.6,79,1.1v1.6C79,3.2,78.8,3.6,78.5,4z M62.2-8.4
		c-0.1-1-0.4-3.2-0.4-4.3h1.4c0,1.1,0.2,3.2,0.4,4.3H62.2z M64.4-8.4c-0.2-1.2-0.5-3.3-0.5-4.3h1.3c0,1.2,0.3,3.3,0.6,4.3H64.4z
		 M72.2-8.8c-0.3,0.3-0.6,0.4-1.1,0.4h-3.5c-0.5,0-0.9-0.1-1.1-0.4c-0.3-0.3-0.4-0.6-0.4-1.1v-1.3c0-0.6,0.2-1,0.5-1.3
		c0.3-0.2,0.6-0.3,1.1-0.3h3.4c0.5,0,0.9,0.2,1.2,0.5c0.2,0.3,0.3,0.6,0.3,1v1.4C72.6-9.4,72.5-9,72.2-8.8z M66.5-15.9v-1.5h6.1v1.5
		H66.5z M66.5-13.6v-1.5h6.1v1.5H66.5z M70.5-10.8c0-0.2-0.2-0.5-0.4-0.5h-1.5c-0.2,0-0.4,0.2-0.4,0.5v0.5c0,0.2,0.2,0.4,0.4,0.4
		h1.6c0.2,0,0.4-0.2,0.4-0.4V-10.8z M74.3-8.4h-1.6c0.4-1.3,0.7-3.2,0.8-4.4H75C75-11.6,74.7-9.6,74.3-8.4z M75.8-8.4
		c-0.2-1-0.3-3.1-0.3-4.4h1.4c0,1.2,0.3,3.4,0.5,4.4H75.8z M78.2-8.4c-0.2-1.1-0.5-3.2-0.5-4.4h1.4c0.1,1.1,0.4,3.3,0.6,4.4H78.2z"
		/>
	<path id="XMLID_63_" d="M87.3-12.9h1V4.7h-2.6v-16.5h-2.4c2.3-3,3.8-6.4,5-9.7h2.9C90.2-18.6,88.9-15.7,87.3-12.9z M101.5-7.7v9.8
		c0,0.8-0.3,1.4-0.8,1.9c-0.5,0.5-1.2,0.8-1.9,0.8h-4l-0.9-2.2h4.3c0.4,0,0.6-0.2,0.6-0.5v-9.7h-9.4v-2.1h9.4v-3.4
		c2.5-1.7,4.6-3.7,6.4-5.6c0.1-0.1,0-0.2-0.1-0.2H91.4v-2.1h14.7c0.9,0,1.6,0.4,1.9,1.1c0.4,0.7,0.3,1.7-0.4,2.4
		c-1.7,1.8-4.1,4.1-6.1,5.5v2.3h8.2v2.1H101.5z"/>
</g>
<g id="XMLID_5_">
	<path id="XMLID_3_" d="M20.8,19.7v11.6h-1.6V19.7h-4.5v-1.3h10.5v1.3H20.8z"/>
	<path id="XMLID_14_" d="M32.3,31.2c-1.1,0.5-2.6,0.4-3.6-0.1c-1.1-0.5-1.9-1.3-2.3-2.4c-0.4-1.3-0.4-3.2,0.2-4.4
		c0.5-1.1,1.4-1.9,2.6-2.3c1.2-0.3,2.5-0.2,3.5,0.3c1.1,0.6,1.6,1.3,1.9,2.5c0.3,1.2,0.3,2.6,0,3.8C34.3,29.7,33.4,30.7,32.3,31.2z
		 M30.3,23.1c-1,0-2,0.7-2.3,1.7c-0.3,1.1-0.3,2.4,0,3.6c0.2,0.9,1.1,1.7,2,1.8c1,0.2,2.3-0.2,2.8-1.2c0.6-1.3,0.6-3.2,0.1-4.5
		C32.5,23.5,31.4,23,30.3,23.1z"/>
	<path id="XMLID_17_" d="M53.3,31.3h-1.6l-3-9.8l-2.7,9.8h-1.7l-3.5-12.9h1.6l2.8,10l2.8-10h1.5l3,9.8l2.6-9.8h1.6L53.3,31.3z"/>
	<path id="XMLID_28_" d="M64.4,31.3c-0.2-0.4-0.3-0.9-0.4-1.2c-0.8,0.7-1.8,1.3-2.9,1.4c-0.8,0.1-1.6,0-2.3-0.3
		c-0.6-0.3-1-0.8-1.2-1.4c-0.2-0.7-0.2-1.4,0-2.1c0.3-0.7,0.9-1.2,1.6-1.5c0.6-0.2,1.6-0.3,2.3-0.4c0.8-0.1,1.8-0.4,2.3-0.8
		c0-0.3,0-0.9-0.3-1.3c-0.3-0.3-0.8-0.5-1.3-0.6c-0.6-0.1-1.4,0-2,0.3s-1,0.8-1.1,1.4h-1.7c0.1-1,1-1.9,1.9-2.4
		c0.8-0.4,2-0.6,2.9-0.5c0.9,0,1.9,0.3,2.6,1c0.5,0.6,0.7,1.3,0.7,2.2c0,1.2,0,2.8,0,3.6c0,0.9,0.3,2.1,0.7,2.7H64.4z M63.9,26.4
		c-0.6,0.3-1.4,0.6-2.1,0.6c-0.6,0.1-1.2,0.1-1.7,0.3c-0.4,0.2-0.7,0.4-0.9,0.8c-0.2,0.4-0.2,0.8-0.1,1.2c0.1,0.4,0.5,0.7,0.9,0.8
		c0.3,0.1,0.8,0.1,1.2,0c1.1-0.2,2-0.8,2.6-1.7C63.9,27.8,63.9,26.9,63.9,26.4z"/>
	<path id="XMLID_31_" d="M73.7,31.3v-6.1c0-0.8-0.3-1.8-1.1-2.1c-0.7-0.3-1.6-0.1-2.2,0.3c-0.8,0.5-1.1,1.2-1.1,2.1v5.8h-1.6V22h1.4
		V23c0.5-0.6,1.1-1,2-1.2c1-0.2,2.3,0,3,0.6c0.9,0.7,1.2,1.4,1.2,2.5v6.3H73.7z"/>
	<path id="XMLID_33_" d="M90.6,30.9c-1.2,0.6-2.7,0.7-4,0.6c-1.4-0.2-2.5-0.7-3.4-1.8c-1.1-1.3-1.6-2.8-1.6-4.5c0-2.4,0.8-4.8,3-6.1
		c1.6-0.9,3.9-1,5.6-0.3c1.5,0.6,2.6,2,3.2,3.5h-1.9c-0.6-1.1-1.2-1.9-2.4-2.4c-1-0.4-2.1-0.5-3.1-0.1c-2.2,0.9-2.9,3-2.9,5.2
		c0.1,1.9,0.6,3.6,2.3,4.6c1.2,0.7,3,0.8,4.2,0.1c0.9-0.5,1.7-1.6,2-2.6h1.9C93.2,28.6,92.1,30.1,90.6,30.9z"/>
	<path id="XMLID_35_" d="M101.5,31.3v-6.2c0-0.7-0.3-1.4-0.9-1.7c-0.6-0.4-1.3-0.3-2.1-0.2c-0.9,0.2-1.6,0.9-2,1.8v6.4h-1.6V18.5
		h1.6V23c0.7-0.7,1.6-1.1,2.6-1.2c1-0.1,2.1,0.1,2.9,0.8c0.6,0.6,1,1.5,1,2.3v6.4H101.5z"/>
	<path id="XMLID_37_" d="M111.7,31.3c-0.2-0.4-0.3-0.9-0.4-1.2c-0.8,0.7-1.8,1.3-2.9,1.4c-0.8,0.1-1.6,0-2.3-0.3
		c-0.6-0.3-1-0.8-1.2-1.4c-0.2-0.7-0.2-1.4,0-2.1c0.3-0.7,0.9-1.2,1.6-1.5c0.6-0.2,1.6-0.3,2.3-0.4c0.8-0.1,1.8-0.4,2.3-0.8
		c0-0.3,0-0.9-0.3-1.3c-0.3-0.3-0.8-0.5-1.3-0.6c-0.6-0.1-1.4,0-2,0.3c-0.6,0.3-1,0.8-1.1,1.4h-1.7c0.1-1,1-1.9,1.9-2.4
		c0.8-0.4,2-0.6,2.9-0.5c0.9,0,1.9,0.3,2.6,1c0.5,0.6,0.7,1.3,0.7,2.2c0,1.2,0,2.8,0,3.6c0,0.9,0.3,2.1,0.7,2.7H111.7z M111.1,26.4
		c-0.6,0.3-1.4,0.6-2.1,0.6c-0.6,0.1-1.2,0.1-1.7,0.3c-0.4,0.2-0.7,0.4-0.9,0.8c-0.2,0.4-0.2,0.8-0.1,1.2c0.1,0.4,0.5,0.7,0.9,0.8
		c0.3,0.1,0.8,0.1,1.2,0c1.1-0.2,2-0.8,2.6-1.7C111.1,27.8,111.1,26.9,111.1,26.4z"/>
	<path id="XMLID_40_" d="M115.7,20.1v-1.7h1.7v1.7H115.7z M115.7,31.3V22h1.7v9.3H115.7z"/>
</g>
</svg>
