<?xml version="1.0" encoding="utf-8"?>
<!-- Generator: Adobe Illustrator 19.0.0, SVG Export Plug-In . SVG Version: 6.00 Build 0)  -->
<svg version="1.1" id="圖層_1" xmlns="http://www.w3.org/2000/svg" xmlns:xlink="http://www.w3.org/1999/xlink" x="0px" y="0px"
	 viewBox="-112.7 -35.4 272.1 85" style="enable-background:new -112.7 -35.4 272.1 85;" xml:space="preserve">
<style type="text/css">
	.st0{fill:url(#XMLID_120_);}
	.st1{fill:#ECECEC;}
	.st2{fill:#0079C4;}
	.st3{fill:url(#XMLID_121_);}
	.st4{fill:#00FF00;}
</style>
<g id="XMLID_1_">
</g>
<g id="XMLID_124_">
</g>
<g id="XMLID_125_">
</g>
<g id="XMLID_126_">
</g>
<g id="XMLID_127_">
</g>
<g id="XMLID_128_">
</g>
<radialGradient id="XMLID_120_" cx="23.4222" cy="26.8894" r="100.9042" gradientTransform="matrix(0.9998 0 0 -0.9905 -2.640000e-002 33.8007)" gradientUnits="userSpaceOnUse">
	<stop  offset="0.2193" style="stop-color:#00FF00;stop-opacity:0"/>
	<stop  offset="1" style="stop-color:#035353"/>
</radialGradient>
<path id="XMLID_27_" class="st0" d="M148.1,49.7h-249.5c-6.3,0-11.3-5.1-11.3-11.3V-24c0-6.3,5.1-11.3,11.3-11.3h249.5
	c6.3,0,11.3,5.1,11.3,11.3v62.4C159.5,44.6,154.4,49.7,148.1,49.7z"/>
<path id="XMLID_26_" class="st1" d="M143.2,44.6H-96.4c-5.7,0-10.4-4.7-10.4-10.4v-54.2c0-5.7,4.7-10.4,10.4-10.4h239.6
	c5.7,0,10.4,4.7,10.4,10.4v54.2C153.6,40,148.9,44.6,143.2,44.6z"/>
<g id="XMLID_11_">
	<path id="XMLID_20_" class="st2" d="M-80.3,6.8c-0.9,0.3-1.7,0.4-2.5,0.8c-1.6,0.8-2.4,2.2-2.5,4c-0.1,2.3,0.9,4,2.5,5.4
		c1.4,1.3,3,2.3,4.6,3.1c0.3,0.1,0.6,0.3,0.9,0.3c0.9,0.1,1.4-0.1,1.7-0.9c0.4-1,0.7-2,0.9-3.1c0.5-2.8,1-5.7,1.4-8.6
		c0.3-1.8,0.4-3.7,0.5-5.5c0-0.4-0.1-0.7-0.5-0.9c-2.6-1.4-4.9-3.1-7-5.2c-2.2-2.3-3.8-5-4.4-8.2c-0.5-2.9-0.3-5.6,1.6-8.1
		c1.9-2.5,4.4-4.2,7.6-4.6c1-0.1,2.1,0.1,3.2,0.2c0.3,0,0.6,0,0.9-0.1c2.3-0.9,4.7,0.5,5.1,2.9c0.3,1.7-0.9,3.3-2.1,3.8
		c-0.3,0.2-0.5,0.3-0.5,0.7c-0.1,1.7-0.2,3.3-0.2,5c-0.1,2.9-0.1,5.9-0.1,8.8c0,0.4,0.1,0.5,0.5,0.7c2.3,0.8,4.6,1.5,6.8,2.4
		c3.7,1.6,7.2,3.5,10.2,6.2c1.8,1.6,3.3,3.5,4.3,5.7c1.3,2.8,1.2,5.7,0.3,8.5c-0.7,2.2-1.8,4.2-3.1,6.1c-0.2,0.3-0.3,0.3-0.6,0.1
		c-2.2-1.1-4.3-2.3-6.7-2.9c-1.6-0.4-3.2-0.7-4.9-0.6c-1.6,0.1-3.2,0.5-4.7,1c-0.9,0.3-1.8,0.6-2.8,0.8c-1.2,0.2-2.5,0.2-3.7-0.2
		c-1.1-0.4-2.2-0.7-3.3-1.1c-2.8-0.8-5.5-0.7-8.3,0.1c-2.1,0.6-4.1,1.6-6,2.6c-0.5,0.3-0.5,0.3-0.8-0.2c-1.5-3-2.2-6.2-1.9-9.6
		c0.4-4.2,2.4-7.5,6-9.8c1.8-1.2,3.8-1.4,5.9-0.9C-81.4,5.8-80.8,6.3-80.3,6.8z M-72.4-3.9c0.1-1,0.1-1.9,0.2-2.8
		C-72.1-7.8-72-9-72-10.3c0.1-2.4,0.2-4.8,0.3-7.1c0-0.2-0.1-0.5-0.3-0.6c-0.9-0.7-1.6-1.5-1.7-2.7c0-0.2-0.2-0.4-0.4-0.4
		c-0.6-0.3-1.3-0.4-2-0.2c-2.3,0.5-4.1,1.8-5,4c-1,2.5-0.5,4.9,0.9,7c1.8,2.8,4.4,4.7,7.3,6.2C-72.7-4-72.6-4-72.4-3.9z M-69.1,3.5
		c0,0.1,0,0.2,0,0.3c0,1.2,0,2.4,0.1,3.6c0.1,1.1,0.1,2.1,0.3,3.2c0.3,2.2,0.6,4.5,0.9,6.7c0.1,0.7,0.3,1.4,0.5,2.1
		c0.2,0.7,0.7,0.8,1.4,0.4c0.2-0.2,0.4-0.3,0.6-0.5c1-1.1,1.6-2.4,2.1-3.8c0.8-2.4,0.9-4.7-0.4-7c-1.2-2.2-3-3.7-5.1-4.9
		C-68.9,3.5-69,3.5-69.1,3.5z M-71.4,20.4c0.1-0.1,0.1-0.1,0.2-0.2c0.1-0.1,0.1-0.2,0.2-0.3c0.5-1,0.5-2.1,0.5-3.1
		c-0.1-2.9-0.2-5.7-0.3-8.6C-70.9,6.4-71,4.7-71,3c0-0.1-0.1-0.2-0.1-0.2c-0.1,0.2-0.1,0.3-0.2,0.5c-0.1,1-0.1,2-0.2,3
		c-0.1,1.8-0.2,3.5-0.3,5.3c-0.1,1.1-0.1,2.1-0.2,3.2c-0.1,1.3-0.1,2.6-0.1,4C-72.1,19.3-71.8,19.9-71.4,20.4z M-68.8-21.2
		c0-0.8-0.5-1.3-1.3-1.3c-0.8,0-1.3,0.6-1.3,1.3c0,0.7,0.5,1.3,1.3,1.3C-69.3-20-68.8-20.5-68.8-21.2z"/>
	<path id="XMLID_19_" class="st2" d="M-85.7,33.5c1.5-0.7,2.9-1.2,4.3-1.4c2-0.3,3.9,0.2,5.7,0.8c1.3,0.5,2.6,0.8,4,0.9
		c1.3,0,2.5-0.2,3.8-0.6c1.1-0.4,2.2-0.7,3.4-1c1.8-0.4,3.5-0.2,5.2,0.4c0.7,0.2,1.3,0.5,2.1,0.8c-0.2,0.2-0.4,0.3-0.5,0.4
		c-3.5,2.5-7.3,4.4-11.5,5.6c-0.8,0.2-1.5,0.4-2.3,0.5c-0.4,0-0.7-0.1-1.1-0.2c-3.9-1.1-7.5-2.6-10.9-4.7
		C-84.2,34.6-84.9,34.1-85.7,33.5z"/>
	<path id="XMLID_13_" class="st2" d="M-90.8,28.1c0.5-0.2,0.8-0.4,1.2-0.6c1.9-1,3.8-1.9,5.9-2.3c2.3-0.5,4.5-0.4,6.8,0.4
		c1.2,0.4,2.4,0.8,3.6,1.1c1.8,0.4,3.6,0.2,5.4-0.4c1.2-0.4,2.3-0.8,3.5-1.1c2.5-0.6,5-0.4,7.3,0.6c1.8,0.7,3.5,1.5,5.4,2.4
		c-0.4,0.5-0.8,0.9-1.1,1.2c-0.1,0.1-0.3,0-0.4-0.1c-1.3-0.6-2.6-1.3-4-1.8c-3.4-1.3-6.8-1.2-10.2,0c-1,0.4-2,0.6-3,0.8
		c-1.2,0.3-2.3,0-3.4-0.3c-1.4-0.4-2.8-0.9-4.2-1.2c-2.3-0.5-4.7-0.3-6.9,0.5c-1.6,0.6-3.1,1.3-4.6,2c-0.3,0.1-0.5,0.2-0.7-0.2
		C-90.4,28.8-90.6,28.5-90.8,28.1z"/>
	<path id="XMLID_12_" class="st2" d="M-54.2,30.9c-0.4,0.4-0.8,0.8-1.2,1.1c-0.1,0.1-0.3,0-0.5,0c-1.3-0.5-2.6-1-4-1.4
		c-2.4-0.7-4.8-0.4-7.2,0.5c-1.1,0.4-2.3,0.7-3.5,0.9c-1.1,0.2-2.1,0-3.1-0.3c-1.3-0.4-2.5-0.8-3.8-1.1c-2.1-0.5-4.3-0.3-6.3,0.4
		c-1,0.3-2.1,0.8-3.1,1.2c-0.2,0.1-0.4,0.1-0.6-0.1c-0.3-0.3-0.7-0.6-1.1-1c0.1,0,0.2-0.1,0.2-0.1c1.8-0.9,3.6-1.7,5.5-2.2
		c2.2-0.5,4.3-0.3,6.4,0.5c1.1,0.4,2.3,0.8,3.5,1c1.4,0.2,2.9,0.2,4.3-0.2c1.4-0.4,2.7-0.9,4.1-1.2c2.1-0.5,4.2-0.3,6.2,0.4
		c1.3,0.5,2.5,1.1,3.8,1.6C-54.5,30.7-54.4,30.8-54.2,30.9z"/>
</g>
<g id="XMLID_7_">
	
		<linearGradient id="XMLID_121_" gradientUnits="userSpaceOnUse" x1="-59.9109" y1="26.5232" x2="-18.3069" y2="26.5232" gradientTransform="matrix(-1 0 0 1 -72.9797 -18.8105)">
		<stop  offset="0" style="stop-color:#00FF00;stop-opacity:0"/>
		<stop  offset="0.3" style="stop-color:#00FF00"/>
	</linearGradient>
	<rect id="XMLID_10_" x="-54.7" y="3.1" class="st3" width="41.6" height="9.2"/>
	<polygon id="XMLID_9_" class="st4" points="-46.7,-5.3 -34,-5.3 -47.2,7.7 -59.9,7.7 	"/>
	<polygon id="XMLID_8_" class="st4" points="-47.2,7.5 -59.9,7.5 -46.7,20.6 -34,20.6 	"/>
</g>
<g id="XMLID_6_">
	<path id="XMLID_74_" d="M-2.9-5.1h1.2v9.5h-2.3v-8.6h-2.5c2.1-2.2,3.5-4.7,4.6-7.3h2.3C-0.4-9.2-1.5-7.1-2.9-5.1z M-3.6-11.6h-2.8
		c1.7-1.8,2.9-3.8,3.9-5.9h2.5C-0.9-15.4-2.1-13.4-3.6-11.6z M-0.1,4.4V2.7h6.7v-6.8H1v-1.8h5.6v-6.3H0.4v-1.7h5.8
		c-0.3-0.8-1-2.6-1.2-3.5h2.3c0.3,1,0.9,2.8,1.3,3.5h6.2v1.8H8.9v6.3h5.3v1.8H8.9v6.8h6.5v1.8H-0.1z"/>
	<path id="XMLID_78_" d="M21.1,4h-2.5c1.2-1.9,1.9-4.6,2.1-6.4h2.2C22.6-0.5,21.9,2.1,21.1,4z M39.5,3.8c-0.5,0.4-1.2,0.6-2,0.6h-3
		l-0.8-1.8H37c0.5,0,0.8-0.3,0.8-0.8v-4.5c0-0.5-0.4-0.8-0.9-0.8H22.2c-0.7,0-1.3-0.2-1.7-0.6C20-4.5,19.7-5.2,19.7-6v-8.8
		c0-0.7,0.3-1.4,0.8-1.8c0.4-0.4,0.9-0.6,1.6-0.6h17.3v1.7h-8.8v2.2h8v1.7h-8v2.3h8v1.7h-8v2.4h7.1c0.7,0,1.3,0.3,1.7,0.6
		c0.5,0.4,0.7,1.1,0.7,1.8v4.8C40.1,2.9,39.8,3.4,39.5,3.8z M28.3-15.5h-5.6c-0.4,0-0.7,0.3-0.7,0.8v1.5h6.3V-15.5z M28.3-11.5H22
		v2.3h6.3V-11.5z M28.3-7.5H22v1.7c0,0.5,0.3,0.8,0.7,0.8h5.6V-7.5z M25.1,4c-0.6-2-0.9-4.8-1-6.4h2.1c0.1,1.6,0.6,4.5,1.3,6.4H25.1
		z M29.8,4C29,2.3,28.3-0.5,28-2.5h2.2c0.3,1.8,1.2,5,2,6.4H29.8z M33.6,1.9c-0.4-1-1.1-3.1-1.4-4.3h2.2c0.3,1.4,1,3.3,1.6,4.3H33.6
		z"/>
	<path id="XMLID_87_" d="M43.6,1.7v-1.9c0.7-0.3,1.9-0.6,2.6-0.9v-9.1h-2.5v-1.7h2.5v-5.4h2.2v5.4H51v1.7h-2.6v8.3
		c0.8-0.3,2.4-1,3.5-1.4v1.9C49.6-0.5,46.2,0.9,43.6,1.7z M64.6,4.4h-2.3c-0.5,0-1-0.1-1.4-0.4c-0.5-0.4-0.9-1.1-0.9-2v-9.5
		c0-0.3-0.2-0.6-0.6-0.6h-2.9c-0.4,0-0.6,0.3-0.6,0.5c0,3.7,0.2,8.6-2.9,12.1h-3.1c4.1-3.2,4-8.6,3.8-12.3c0-0.7,0.3-1.3,0.8-1.6
		c0.4-0.3,0.9-0.4,1.3-0.4h4.3c0.7,0,1.2,0.3,1.5,0.7c0.3,0.4,0.5,1,0.5,1.7v9.4c0,0.5,0.3,0.9,0.8,0.9h2.4L64.6,4.4z M51.6-12.2
		v-1.7h5.6c-0.4-1.1-0.9-2.6-1.2-3.4h2.4c0.4,1.2,0.8,2.3,1.3,3.4h5.4v1.7H51.6z"/>
	<path id="XMLID_91_" d="M73.2-3.7c-0.4,1.5-0.3,3.1,0.1,4.5c0.5,1.4,1.3,2.7,2.4,3.9H74c-0.8-1.1-1.5-2.3-1.9-3.6
		c-0.5-1.6-0.6-3.3-0.2-5.1c0.4-1.5,1.2-2.8,2.2-4.1h1.8C74.6-6.7,73.7-5.3,73.2-3.7z"/>
	<path id="XMLID_93_" d="M78.5,2.5H77C78,1,78.3-0.8,78.5-2.7h1.4C79.7-0.8,79.3,0.9,78.5,2.5z M86.1-3.3v5.8c0,0.5-0.1,0.9-0.4,1.1
		c-0.2,0.2-0.6,0.3-1.1,0.3h-1.3l-0.5-1.1h1.5c0.2,0,0.3-0.1,0.3-0.3v-5.8h-1.9v1.1c0,2.3-0.3,4.5-1.7,6.1h-1.9
		c1.5-1.6,2.2-2.8,2.2-5.9v-1.3h-4.2l0-1.1h5.8v-2h-5.1v-1h5.1v-1.7h1.4v1.7h5.2v1h-5.1v2h5.8v1.1H86.1z M88.8,2.5
		c-0.7-1.6-1.3-3.3-1.5-5.2h1.3c0.2,1.8,0.9,3.5,1.7,5.2H88.8z"/>
	<path id="XMLID_97_" d="M93.2,2.6H92c0.3-2.4,0.6-5.5,0.6-7.6h1.1C93.6-2.5,93.6,0.1,93.2,2.6z M95.4-5.7v9.7h-1.3v-9.7h-1.9v-1
		h1.9v-2.4h1.3v2.4h1.7v1H95.4z M96.3,2.6c-0.3-2.5-0.5-5.1-0.5-7.6h1C96.9-2.5,97,0,97.5,2.6H96.3z M97.1,3.9V2.8h3.4v-4.4h-2.8
		v-1.1h2.8v-3.2h-3.1v-1.1h3c-0.2-0.7-0.5-1.5-0.7-2.3h1.5c0.2,0.7,0.4,1.6,0.7,2.3h2.9v1.1h-3v3.2h2.6v1.1h-2.6v4.4h3.3v1.1H97.1z"
		/>
	<path id="XMLID_102_" d="M117.7-7.4v0.8h2v0.9h-2v0.5c0,0.2-0.1,0.5-0.3,0.6c-0.2,0.2-0.4,0.3-0.7,0.3h-3.8c-0.3,0-0.5-0.1-0.7-0.3
		c-0.2-0.2-0.3-0.4-0.3-0.6v-0.5h-2.2v-0.9h2.2v-0.8h-2.3c-0.3,0-0.5,0.2-0.5,0.5v5.8c0,1.5-0.1,3.3-0.6,4.9H107
		c0.6-1.6,0.8-3.7,0.8-5.9v-4.7c0-0.5,0.1-0.8,0.4-1.1c0.3-0.3,0.7-0.4,1.1-0.4h3.7c-0.2-0.2-0.3-0.6-0.4-0.8h1.6
		c0.1,0.3,0.3,0.5,0.4,0.8h5.6v1H117.7z M111.8,3.9h-2.6c0.9-0.4,1.8-0.9,2.6-1.6h2.1C113.3,2.9,112.6,3.5,111.8,3.9z M115.5-2.8
		v0.6h2.8c0.3,0,0.6,0.1,0.8,0.4c0.2,0.2,0.3,0.5,0.3,0.8v1.6c0,0.3-0.1,0.7-0.4,0.9c-0.2,0.2-0.6,0.3-1,0.3h-6.6
		c-0.3,0-0.7-0.1-0.9-0.3c-0.2-0.2-0.4-0.5-0.4-0.9v-1.8c0-0.4,0.2-0.6,0.5-0.8c0.2-0.1,0.6-0.2,0.8-0.2h2.7v-0.6h-4.7v-0.9h10.7
		v0.9H115.5z M114.2-1.2h-2.3c-0.1,0-0.3,0.2-0.3,0.3v0.3h2.7V-1.2z M114.2,0.3h-2.7v0.4c0,0.1,0.2,0.3,0.3,0.3h2.3V0.3z M116.4-7.4
		h-3.2v0.8h3.2V-7.4z M116.4-5.7h-3.2v0.2c0,0.2,0.2,0.4,0.4,0.4h2.5c0.2,0,0.3-0.1,0.3-0.3V-5.7z M118.1-0.9c0-0.1-0.2-0.3-0.4-0.3
		h-2.3v0.7h2.7V-0.9z M118.1,0.3h-2.7V1h2.4c0.2,0,0.3-0.2,0.3-0.4V0.3z M117.8,3.9c-0.6-0.5-1.3-1.1-1.7-1.6h2.1
		c0.4,0.5,1.5,1.2,2.4,1.6H117.8z"/>
	<path id="XMLID_113_" d="M129.7-2.9c-0.1,0.2-0.3,0.6-0.4,0.9h4.1c0.5,0,0.8,0.1,1,0.4c0.2,0.3,0.4,0.6,0.4,1v3.3
		c0,0.4-0.2,0.7-0.4,0.9c-0.3,0.3-0.6,0.4-0.9,0.4h-1.6l-0.5-1h1.7c0.2,0,0.3-0.2,0.3-0.4v-3.2c0-0.2-0.1-0.3-0.2-0.3
		c-0.6,1.5-1.6,3.2-2.7,4.6h-1.6c1.1-1.2,2.4-3,3-4.6h-0.9c-0.7,1.5-1.9,3.2-3.3,4.6h-1.8c1.7-1.5,2.9-3,3.7-4.6h-0.8
		c-0.2,0.3-0.7,1-0.9,1.4h-1.4v0.2c-1.1,0.6-3.1,1.5-4.3,2V1.2c0.5-0.2,1.1-0.4,1.5-0.6v-5.8h-1.5v-1.1h1.5v-2.9h1.3v2.9h1.5v1.1
		H125V0c0.4-0.2,1.1-0.5,1.4-0.7V0c0.6-0.6,1.4-1.9,1.9-2.9h-2.2v-1h9v1H129.7z M134-5c-0.2,0.3-0.6,0.4-1.1,0.4h-4.8
		c-0.3,0-0.6-0.1-0.8-0.4c-0.2-0.2-0.3-0.4-0.3-0.7V-8c0-0.4,0.1-0.7,0.4-0.9c0.2-0.2,0.6-0.3,0.9-0.3h4.6c0.5,0,0.8,0.1,1,0.3
		c0.3,0.2,0.4,0.6,0.4,1.1V-6C134.3-5.6,134.2-5.3,134-5z M133-7.8c0-0.2-0.1-0.3-0.3-0.3h-3.9c-0.2,0-0.4,0.2-0.4,0.3v0.3h4.7V-7.8
		z M133-6.5h-4.7v0.6c0,0.2,0.2,0.3,0.3,0.3h4c0.2,0,0.4-0.2,0.4-0.4V-6.5z"/>
	<path id="XMLID_118_" d="M138.1-8c1,1.2,1.8,2.6,2.2,4.1c0.4,1.7,0.3,3.5-0.2,5.1c-0.4,1.3-1.1,2.6-1.9,3.6h-1.8
		c1-1.2,1.9-2.5,2.4-3.9c0.5-1.5,0.5-3.1,0.2-4.5c-0.4-1.6-1.4-3-2.6-4.4H138.1z"/>
</g>
<g id="XMLID_5_">
	<path id="XMLID_3_" d="M-5.5,21v10.3H-7V21h-4v-1.1h9.3V21H-5.5z"/>
	<path id="XMLID_14_" d="M4.7,31.2c-1,0.4-2.3,0.4-3.2-0.1c-1-0.4-1.7-1.2-2-2.2c-0.4-1.2-0.3-2.8,0.1-3.9c0.4-1,1.2-1.7,2.3-2
		c1-0.3,2.3-0.2,3.2,0.3c0.9,0.5,1.4,1.2,1.7,2.2c0.3,1.1,0.3,2.3,0,3.3C6.5,29.9,5.7,30.8,4.7,31.2z M2.9,24c-0.9,0-1.8,0.6-2,1.5
		c-0.3,1-0.3,2.2,0,3.2c0.2,0.8,1,1.5,1.8,1.6c0.9,0.1,2-0.1,2.5-1.1c0.6-1.2,0.5-2.8,0.1-4C4.9,24.4,3.9,23.9,2.9,24z"/>
	<path id="XMLID_17_" d="M22.4,31.3v-8.1l-3.5,8.1h-1.2l-3.5-8v8h-1.4V19.9h1.4l4.1,9.3l4-9.3h1.4v11.4H22.4z"/>
	<path id="XMLID_28_" d="M31.3,31.3C31.2,31,31,30.6,31,30.2c-0.7,0.7-1.6,1.1-2.6,1.2c-0.7,0.1-1.5,0-2-0.3
		c-0.5-0.3-0.9-0.7-1.1-1.3c-0.2-0.6-0.2-1.3,0-1.8c0.3-0.7,0.8-1.1,1.5-1.3c0.6-0.2,1.4-0.3,2.1-0.4c0.8-0.1,1.6-0.4,2-0.8
		c0-0.3,0-0.8-0.3-1.1c-0.3-0.3-0.7-0.5-1.2-0.5c-0.6-0.1-1.3,0-1.8,0.2c-0.5,0.2-0.8,0.7-1,1.2h-1.5c0.1-0.9,0.8-1.7,1.7-2.1
		c0.7-0.3,1.8-0.5,2.5-0.5c0.8,0,1.7,0.3,2.3,0.9c0.5,0.5,0.7,1.2,0.6,2c0,1,0,2.4,0,3.2c0,0.8,0.3,1.8,0.6,2.4H31.3z M30.8,26.9
		c-0.6,0.3-1.2,0.5-1.8,0.6c-0.6,0-1.1,0.1-1.5,0.3c-0.4,0.1-0.6,0.3-0.8,0.7c-0.1,0.3-0.2,0.7,0,1.1c0.1,0.4,0.4,0.6,0.8,0.7
		c0.3,0.1,0.7,0.1,1,0c1-0.2,1.8-0.7,2.4-1.5C30.8,28.2,30.8,27.4,30.8,26.9z"/>
	<path id="XMLID_31_" d="M46.1,31.3V26h-6v5.4h-1.5V19.9h1.5v5h6v-5h1.5v11.4H46.1z"/>
	<path id="XMLID_33_" d="M55.1,31.3c-0.1-0.4-0.3-0.8-0.3-1.1c-0.7,0.7-1.6,1.1-2.6,1.2c-0.7,0.1-1.5,0-2-0.3
		c-0.5-0.3-0.9-0.7-1.1-1.3c-0.2-0.6-0.2-1.3,0-1.8c0.3-0.7,0.8-1.1,1.5-1.3c0.6-0.2,1.4-0.3,2.1-0.4c0.8-0.1,1.6-0.4,2-0.8
		c0-0.3,0-0.8-0.3-1.1c-0.3-0.3-0.7-0.5-1.2-0.5c-0.6-0.1-1.3,0-1.8,0.2c-0.5,0.2-0.8,0.7-1,1.2h-1.5c0.1-0.9,0.8-1.7,1.7-2.1
		c0.7-0.3,1.8-0.5,2.5-0.5c0.8,0,1.7,0.3,2.3,0.9c0.5,0.5,0.7,1.2,0.6,2c0,1,0,2.4,0,3.2c0,0.8,0.3,1.8,0.6,2.4H55.1z M54.6,26.9
		c-0.6,0.3-1.2,0.5-1.8,0.6c-0.6,0-1.1,0.1-1.5,0.3c-0.4,0.1-0.6,0.3-0.8,0.7c-0.1,0.3-0.2,0.7,0,1.1c0.1,0.4,0.4,0.6,0.8,0.7
		c0.3,0.1,0.7,0.1,1,0c1-0.2,1.8-0.7,2.4-1.5C54.6,28.2,54.6,27.4,54.6,26.9z"/>
	<path id="XMLID_36_" d="M63.3,31.3v-5.4c0-0.8-0.2-1.6-1-1.9c-0.6-0.2-1.4-0.1-2,0.2c-0.7,0.4-1,1.1-1,1.9v5.1h-1.4V23h1.2v0.9
		c0.4-0.5,1-0.9,1.8-1c0.9-0.2,2,0,2.7,0.5c0.8,0.6,1,1.3,1,2.2v5.6H63.3z"/>
	<path id="XMLID_38_" d="M72.6,33.5c-0.6,0.7-1.5,1-2.4,1.1c-0.8,0.1-1.9,0-2.6-0.4c-0.8-0.4-1.2-1.3-1.3-2.1h1.4
		c0,0.6,0.4,1.2,0.9,1.3c0.6,0.1,1.2,0.2,1.7,0.1c0.5-0.1,1.1-0.4,1.4-1c0.3-0.7,0.3-1.4,0.3-2.2c-0.5,0.5-1.1,0.8-1.8,1
		c-0.9,0.2-1.8,0-2.6-0.5c-0.6-0.4-1.1-1.1-1.3-1.8c-0.3-1-0.4-2.1-0.2-3.2c0.2-0.8,0.6-1.6,1.2-2.2c0.6-0.5,1.5-0.8,2.3-0.8
		c0.9,0,1.7,0.5,2.3,1.2v-1h1.4v8C73.4,32,73.1,32.9,72.6,33.5z M71.5,25C71,24.3,70.4,24,69.7,24c-0.8,0-1.4,0.4-1.8,1.1
		c-0.5,0.9-0.5,2.8-0.1,3.7c0.3,0.8,1,1.3,1.8,1.3c0.9,0,1.6-0.4,2-1.2C72.2,28,72.2,25.9,71.5,25z"/>
	<path id="XMLID_41_" d="M78.3,26.8c-0.3,1-0.2,2.1,0.1,3c0.3,1,0.9,1.8,1.6,2.6h-1.2c-0.6-0.7-1-1.5-1.3-2.4
		c-0.3-1.1-0.4-2.2-0.1-3.4c0.3-1,0.8-1.9,1.4-2.7H80C79.2,24.8,78.6,25.7,78.3,26.8z"/>
	<path id="XMLID_43_" d="M85.3,26.2c0-0.3-0.1-0.7-0.3-1c-0.2-0.2-0.5-0.3-0.8-0.4c-0.5-0.1-1.1-0.1-1.6,0c-0.3,0.1-0.6,0.3-0.8,0.6
		c-0.1,0.3-0.1,0.7,0,1c0.2,0.3,0.5,0.4,0.8,0.5c0.8,0.2,1.8,0.4,2.4,0.6c0.4,0.1,0.8,0.4,1,0.8c0.3,0.5,0.3,1.1,0.1,1.6
		c-0.2,0.4-0.5,0.7-0.8,1c-0.7,0.4-1.5,0.5-2.4,0.4c-0.6,0-1.3-0.3-1.8-0.7c-0.4-0.4-0.6-1-0.7-1.6h0.9c0,0.5,0.3,0.9,0.7,1.2
		c0.4,0.3,0.8,0.4,1.3,0.4c0.5,0,1.1-0.1,1.6-0.3c0.3-0.2,0.5-0.6,0.5-1c0-0.4-0.3-0.8-0.7-1c-0.4-0.2-1.3-0.3-1.9-0.4
		c-0.5-0.1-1.2-0.3-1.6-0.7c-0.4-0.4-0.6-1-0.4-1.6c0.1-0.5,0.5-0.9,0.9-1.2c0.7-0.4,1.9-0.4,2.7-0.3c0.5,0.1,0.9,0.4,1.3,0.8
		c0.3,0.4,0.4,0.8,0.4,1.2H85.3z"/>
	<path id="XMLID_45_" d="M89.2,31.3h-0.8c-0.3,0-0.5-0.1-0.6-0.2c-0.2-0.1-0.2-0.4-0.2-0.6v-3.6h-0.7v-0.7h0.7v-2h0.9v1.9h1v0.7h-1
		v3.5c0,0.2,0.2,0.3,0.3,0.3h0.9L89.2,31.3z"/>
	<path id="XMLID_47_" d="M93.9,31.3c-0.1-0.2-0.2-0.5-0.2-0.7c-0.5,0.4-1,0.7-1.6,0.8c-0.4,0-0.9,0-1.3-0.2
		c-0.3-0.2-0.6-0.4-0.7-0.8c-0.1-0.4-0.1-0.8,0-1.1c0.2-0.4,0.5-0.7,0.9-0.8c0.4-0.1,0.9-0.2,1.3-0.2c0.5,0,1-0.2,1.3-0.5
		c0-0.2,0-0.5-0.2-0.7c-0.2-0.2-0.5-0.3-0.7-0.3c-0.3,0-0.8,0-1.1,0.2C91.2,27,91,27.3,91,27.6H90c0.1-0.5,0.5-1.1,1-1.3
		c0.4-0.2,1.1-0.3,1.6-0.3c0.5,0,1.1,0.2,1.4,0.5c0.3,0.3,0.4,0.7,0.4,1.2c0,0.6,0,1.5,0,2c0,0.5,0.2,1.1,0.4,1.5H93.9z M93.6,28.6
		c-0.4,0.2-0.8,0.3-1.1,0.4c-0.3,0-0.7,0.1-0.9,0.2c-0.2,0.1-0.4,0.2-0.5,0.4c-0.1,0.2-0.1,0.5,0,0.7c0.1,0.2,0.3,0.4,0.5,0.5
		c0.2,0.1,0.4,0,0.6,0c0.6-0.1,1.1-0.4,1.5-1C93.6,29.4,93.6,28.9,93.6,28.6z"/>
	<path id="XMLID_50_" d="M99,31.3V28c0-0.5-0.1-1-0.6-1.2c-0.4-0.1-0.9-0.1-1.2,0.1c-0.4,0.3-0.6,0.7-0.6,1.2v3.2h-0.9v-5.2h0.8v0.6
		c0.3-0.3,0.6-0.5,1.1-0.6c0.6-0.1,1.3,0,1.7,0.3c0.5,0.4,0.7,0.8,0.7,1.4v3.5H99z"/>
	<path id="XMLID_52_" d="M101,31.3v-7.1h0.9v7.1H101z"/>
	<path id="XMLID_54_" d="M106.9,31.1c-0.4,0.3-1.1,0.3-1.7,0.3c-0.6-0.1-1.2-0.3-1.6-0.9c-0.4-0.5-0.6-1.2-0.5-1.9
		c0-0.6,0.1-1.1,0.4-1.6c0.4-0.7,1.2-1.1,2-1.1c0.7,0,1.3,0.2,1.7,0.7c0.4,0.4,0.6,1.1,0.5,1.7c0,0.3-0.2,0.5-0.5,0.5h-3.2
		c0.1,0.6,0.3,1.2,0.7,1.6c0.3,0.2,0.6,0.3,1,0.3c0.3,0,0.6-0.1,0.8-0.3s0.3-0.5,0.4-0.8h1C107.7,30.1,107.4,30.8,106.9,31.1z
		 M106.3,26.9c-0.4-0.3-1-0.3-1.4-0.1c-0.6,0.2-0.9,0.8-0.9,1.4h2.7c0.1,0,0.2-0.1,0.2-0.2C106.8,27.6,106.6,27.2,106.3,26.9z"/>
	<path id="XMLID_57_" d="M110.8,32.7c-0.1,0.2-0.2,0.4-0.4,0.5c-0.2,0.1-0.4,0.1-0.6,0.1H109l-0.4-0.7h0.9c0.2,0,0.3-0.1,0.4-0.3
		l0.5-1.2l-2.1-5h1l1.6,3.7l1.6-3.7h1L110.8,32.7z"/>
	<path id="XMLID_59_" d="M122,27.6c-0.5,0.5-1,0.7-1.7,0.7h-2.5v3h-0.9v-6.2c0-0.3,0.1-0.5,0.3-0.7c0.2-0.2,0.4-0.3,0.6-0.3h2.7
		c0.5,0,1.1,0.2,1.5,0.6c0.3,0.4,0.5,0.9,0.5,1.4C122.4,26.7,122.3,27.3,122,27.6z M121.3,25.3c-0.3-0.3-0.7-0.4-1.1-0.4h-2.1
		c-0.1,0-0.2,0.1-0.2,0.3v2.5h2.3c0.4,0,0.7-0.1,1-0.3c0.2-0.2,0.3-0.5,0.3-0.8C121.5,26.1,121.5,25.6,121.3,25.3z"/>
	<path id="XMLID_62_" d="M123.4,31.3v-7.1h0.9v7.1H123.4z"/>
	<path id="XMLID_64_" d="M129.2,31.3c-0.1-0.2-0.2-0.5-0.2-0.7c-0.5,0.4-1,0.7-1.6,0.8c-0.4,0-0.9,0-1.3-0.2
		c-0.3-0.2-0.6-0.4-0.7-0.8c-0.1-0.4-0.1-0.8,0-1.1c0.2-0.4,0.5-0.7,0.9-0.8c0.4-0.1,0.9-0.2,1.3-0.2c0.5,0,1-0.2,1.3-0.5
		c0-0.2,0-0.5-0.2-0.7c-0.2-0.2-0.5-0.3-0.7-0.3c-0.3,0-0.8,0-1.1,0.2c-0.3,0.1-0.5,0.4-0.6,0.8h-0.9c0.1-0.5,0.5-1.1,1-1.3
		c0.4-0.2,1.1-0.3,1.6-0.3c0.5,0,1.1,0.2,1.4,0.5c0.3,0.3,0.4,0.7,0.4,1.2c0,0.6,0,1.5,0,2c0,0.5,0.2,1.1,0.4,1.5H129.2z
		 M128.9,28.6c-0.4,0.2-0.8,0.3-1.1,0.4c-0.3,0-0.7,0.1-0.9,0.2c-0.2,0.1-0.4,0.2-0.5,0.4c-0.1,0.2-0.1,0.5,0,0.7
		c0.1,0.2,0.3,0.4,0.5,0.5c0.2,0.1,0.4,0,0.6,0c0.6-0.1,1.1-0.4,1.5-1C128.9,29.4,128.9,28.9,128.9,28.6z"/>
	<path id="XMLID_67_" d="M131.3,31.3c-0.3,0-0.5-0.1-0.6-0.3c-0.1-0.2,0-0.4,0.1-0.6c0.8-0.9,2.1-2.3,3.2-3.4c0,0,0-0.1,0-0.1h-3.1
		v-0.7h3.9c0.2,0,0.4,0.1,0.5,0.3c0.1,0.2,0.1,0.4-0.1,0.6c-1,1.1-2.4,2.6-3.2,3.5c0,0,0,0.1,0,0.1h3.6v0.7H131.3z"/>
	<path id="XMLID_69_" d="M140,31.3c-0.1-0.2-0.2-0.5-0.2-0.7c-0.5,0.4-1,0.7-1.6,0.8c-0.4,0-0.9,0-1.3-0.2c-0.3-0.2-0.6-0.4-0.7-0.8
		c-0.1-0.4-0.1-0.8,0-1.1c0.2-0.4,0.5-0.7,0.9-0.8c0.4-0.1,0.9-0.2,1.3-0.2c0.5,0,1-0.2,1.3-0.5c0-0.2,0-0.5-0.2-0.7
		c-0.2-0.2-0.5-0.3-0.7-0.3c-0.3,0-0.8,0-1.1,0.2c-0.3,0.1-0.5,0.4-0.6,0.8h-0.9c0.1-0.5,0.5-1.1,1-1.3c0.4-0.2,1.1-0.3,1.6-0.3
		c0.5,0,1.1,0.2,1.4,0.5c0.3,0.3,0.4,0.7,0.4,1.2c0,0.6,0,1.5,0,2c0,0.5,0.2,1.1,0.4,1.5H140z M139.7,28.6c-0.4,0.2-0.8,0.3-1.1,0.4
		c-0.3,0-0.7,0.1-0.9,0.2c-0.2,0.1-0.4,0.2-0.5,0.4c-0.1,0.2-0.1,0.5,0,0.7c0.1,0.2,0.3,0.4,0.5,0.5c0.2,0.1,0.4,0,0.6,0
		c0.6-0.1,1.1-0.4,1.5-1C139.7,29.4,139.7,28.9,139.7,28.6z"/>
	<path id="XMLID_72_" d="M142.6,23.9c0.7,0.8,1.2,1.7,1.4,2.7c0.3,1.2,0.2,2.3-0.1,3.4c-0.3,0.9-0.7,1.7-1.3,2.4h-1.2
		c0.7-0.8,1.3-1.6,1.6-2.6c0.3-1,0.4-2,0.1-3c-0.3-1.1-0.9-2-1.7-2.9H142.6z"/>
</g>
</svg>
