<?xml version="1.0" encoding="utf-8"?>
<!-- Generator: Adobe Illustrator 19.0.0, SVG Export Plug-In . SVG Version: 6.00 Build 0)  -->
<svg version="1.1" id="圖層_1" xmlns="http://www.w3.org/2000/svg" xmlns:xlink="http://www.w3.org/1999/xlink" x="0px" y="0px"
	 viewBox="-112.7 -35.4 272.1 85" style="enable-background:new -112.7 -35.4 272.1 85;" xml:space="preserve">
<style type="text/css">
	.st0{fill:url(#XMLID_64_);}
	.st1{fill:#ECECEC;}
	.st2{fill:#0079C4;}
	.st3{fill:url(#XMLID_65_);}
	.st4{fill:#FF0000;}
</style>
<g id="XMLID_1_">
</g>
<g id="XMLID_124_">
</g>
<g id="XMLID_125_">
</g>
<g id="XMLID_126_">
</g>
<g id="XMLID_127_">
</g>
<g id="XMLID_128_">
</g>
<radialGradient id="XMLID_64_" cx="23.4222" cy="26.8894" r="100.9042" gradientTransform="matrix(0.9998 0 0 -0.9905 -2.640000e-002 33.8007)" gradientUnits="userSpaceOnUse">
	<stop  offset="0.2193" style="stop-color:#00FF00;stop-opacity:0"/>
	<stop  offset="1" style="stop-color:#035353"/>
</radialGradient>
<path id="XMLID_27_" class="st0" d="M148.1,49.7h-249.5c-6.3,0-11.3-5.1-11.3-11.3V-24c0-6.3,5.1-11.3,11.3-11.3h249.5
	c6.3,0,11.3,5.1,11.3,11.3v62.4C159.5,44.6,154.4,49.7,148.1,49.7z"/>
<path id="XMLID_26_" class="st1" d="M143.2,44.6H-96.4c-5.7,0-10.4-4.7-10.4-10.4v-54.2c0-5.7,4.7-10.4,10.4-10.4h239.6
	c5.7,0,10.4,4.7,10.4,10.4v54.2C153.6,40,148.9,44.6,143.2,44.6z"/>
<g id="XMLID_11_">
	<path id="XMLID_20_" class="st2" d="M-80.3,6.8c-0.9,0.3-1.7,0.4-2.5,0.8c-1.6,0.8-2.4,2.2-2.5,4c-0.1,2.3,0.9,4,2.5,5.4
		c1.4,1.3,3,2.3,4.6,3.1c0.3,0.1,0.6,0.3,0.9,0.3c0.9,0.1,1.4-0.1,1.7-0.9c0.4-1,0.7-2,0.9-3.1c0.5-2.8,1-5.7,1.4-8.6
		c0.3-1.8,0.4-3.7,0.5-5.5c0-0.4-0.1-0.7-0.5-0.9c-2.6-1.4-4.9-3.1-7-5.2c-2.2-2.3-3.8-5-4.4-8.2c-0.5-2.9-0.3-5.6,1.6-8.1
		c1.9-2.5,4.4-4.2,7.6-4.6c1-0.1,2.1,0.1,3.2,0.2c0.3,0,0.6,0,0.9-0.1c2.3-0.9,4.7,0.5,5.1,2.9c0.3,1.7-0.9,3.3-2.1,3.8
		c-0.3,0.2-0.5,0.3-0.5,0.7c-0.1,1.7-0.2,3.3-0.2,5c-0.1,2.9-0.1,5.9-0.1,8.8c0,0.4,0.1,0.5,0.5,0.7c2.3,0.8,4.6,1.5,6.8,2.4
		c3.7,1.6,7.2,3.5,10.2,6.2c1.8,1.6,3.3,3.5,4.3,5.7c1.3,2.8,1.2,5.7,0.3,8.5c-0.7,2.2-1.8,4.2-3.1,6.1c-0.2,0.3-0.3,0.3-0.6,0.1
		c-2.2-1.1-4.3-2.3-6.7-2.9c-1.6-0.4-3.2-0.7-4.9-0.6c-1.6,0.1-3.2,0.5-4.7,1c-0.9,0.3-1.8,0.6-2.8,0.8c-1.2,0.2-2.5,0.2-3.7-0.2
		c-1.1-0.4-2.2-0.7-3.3-1.1c-2.8-0.8-5.5-0.7-8.3,0.1c-2.1,0.6-4.1,1.6-6,2.6c-0.5,0.3-0.5,0.3-0.8-0.2c-1.5-3-2.2-6.2-1.9-9.6
		c0.4-4.2,2.4-7.5,6-9.8c1.8-1.2,3.8-1.4,5.9-0.9C-81.4,5.8-80.8,6.3-80.3,6.8z M-72.4-3.9c0.1-1,0.1-1.9,0.2-2.8
		C-72.1-7.8-72-9-72-10.3c0.1-2.4,0.2-4.8,0.3-7.1c0-0.2-0.1-0.5-0.3-0.6c-0.9-0.7-1.6-1.5-1.7-2.7c0-0.2-0.2-0.4-0.4-0.4
		c-0.6-0.3-1.3-0.4-2-0.2c-2.3,0.5-4.1,1.8-5,4c-1,2.5-0.5,4.9,0.9,7c1.8,2.8,4.4,4.7,7.3,6.2C-72.7-4-72.6-4-72.4-3.9z M-69.1,3.5
		c0,0.1,0,0.2,0,0.3c0,1.2,0,2.4,0.1,3.6c0.1,1.1,0.1,2.1,0.3,3.2c0.3,2.2,0.6,4.5,0.9,6.7c0.1,0.7,0.3,1.4,0.5,2.1
		c0.2,0.7,0.7,0.8,1.4,0.4c0.2-0.2,0.4-0.3,0.6-0.5c1-1.1,1.6-2.4,2.1-3.8c0.8-2.4,0.9-4.7-0.4-7c-1.2-2.2-3-3.7-5.1-4.9
		C-68.9,3.5-69,3.5-69.1,3.5z M-71.4,20.4c0.1-0.1,0.1-0.1,0.2-0.2c0.1-0.1,0.1-0.2,0.2-0.3c0.5-1,0.5-2.1,0.5-3.1
		c-0.1-2.9-0.2-5.7-0.3-8.6C-70.9,6.4-71,4.7-71,3c0-0.1-0.1-0.2-0.1-0.2c-0.1,0.2-0.1,0.3-0.2,0.5c-0.1,1-0.1,2-0.2,3
		c-0.1,1.8-0.2,3.5-0.3,5.3c-0.1,1.1-0.1,2.1-0.2,3.2c-0.1,1.3-0.1,2.6-0.1,4C-72.1,19.3-71.8,19.9-71.4,20.4z M-68.8-21.2
		c0-0.8-0.5-1.3-1.3-1.3c-0.8,0-1.3,0.6-1.3,1.3c0,0.7,0.5,1.3,1.3,1.3C-69.3-20-68.8-20.5-68.8-21.2z"/>
	<path id="XMLID_19_" class="st2" d="M-85.7,33.5c1.5-0.7,2.9-1.2,4.3-1.4c2-0.3,3.9,0.2,5.7,0.8c1.3,0.5,2.6,0.8,4,0.9
		c1.3,0,2.5-0.2,3.8-0.6c1.1-0.4,2.2-0.7,3.4-1c1.8-0.4,3.5-0.2,5.2,0.4c0.7,0.2,1.3,0.5,2.1,0.8c-0.2,0.2-0.4,0.3-0.5,0.4
		c-3.5,2.5-7.3,4.4-11.5,5.6c-0.8,0.2-1.5,0.4-2.3,0.5c-0.4,0-0.7-0.1-1.1-0.2c-3.9-1.1-7.5-2.6-10.9-4.7
		C-84.2,34.6-84.9,34.1-85.7,33.5z"/>
	<path id="XMLID_13_" class="st2" d="M-90.8,28.1c0.5-0.2,0.8-0.4,1.2-0.6c1.9-1,3.8-1.9,5.9-2.3c2.3-0.5,4.5-0.4,6.8,0.4
		c1.2,0.4,2.4,0.8,3.6,1.1c1.8,0.4,3.6,0.2,5.4-0.4c1.2-0.4,2.3-0.8,3.5-1.1c2.5-0.6,5-0.4,7.3,0.6c1.8,0.7,3.5,1.5,5.4,2.4
		c-0.4,0.5-0.8,0.9-1.1,1.2c-0.1,0.1-0.3,0-0.4-0.1c-1.3-0.6-2.6-1.3-4-1.8c-3.4-1.3-6.8-1.2-10.2,0c-1,0.4-2,0.6-3,0.8
		c-1.2,0.3-2.3,0-3.4-0.3c-1.4-0.4-2.8-0.9-4.2-1.2c-2.3-0.5-4.7-0.3-6.9,0.5c-1.6,0.6-3.1,1.3-4.6,2c-0.3,0.1-0.5,0.2-0.7-0.2
		C-90.4,28.8-90.6,28.5-90.8,28.1z"/>
	<path id="XMLID_12_" class="st2" d="M-54.2,30.9c-0.4,0.4-0.8,0.8-1.2,1.1c-0.1,0.1-0.3,0-0.5,0c-1.3-0.5-2.6-1-4-1.4
		c-2.4-0.7-4.8-0.4-7.2,0.5c-1.1,0.4-2.3,0.7-3.5,0.9c-1.1,0.2-2.1,0-3.1-0.3c-1.3-0.4-2.5-0.8-3.8-1.1c-2.1-0.5-4.3-0.3-6.3,0.4
		c-1,0.3-2.1,0.8-3.1,1.2c-0.2,0.1-0.4,0.1-0.6-0.1c-0.3-0.3-0.7-0.6-1.1-1c0.1,0,0.2-0.1,0.2-0.1c1.8-0.9,3.6-1.7,5.5-2.2
		c2.2-0.5,4.3-0.3,6.4,0.5c1.1,0.4,2.3,0.8,3.5,1c1.4,0.2,2.9,0.2,4.3-0.2c1.4-0.4,2.7-0.9,4.1-1.2c2.1-0.5,4.2-0.3,6.2,0.4
		c1.3,0.5,2.5,1.1,3.8,1.6C-54.5,30.7-54.4,30.8-54.2,30.9z"/>
</g>
<g id="XMLID_7_">
	
		<linearGradient id="XMLID_65_" gradientUnits="userSpaceOnUse" x1="-59.9109" y1="26.5232" x2="-18.3069" y2="26.5232" gradientTransform="matrix(1 0 0 -1 -3.266449e-006 34.06)">
		<stop  offset="0" style="stop-color:#FF0000;stop-opacity:0"/>
		<stop  offset="0.3" style="stop-color:#FF0000"/>
	</linearGradient>
	<rect id="XMLID_10_" x="-59.9" y="2.9" class="st3" width="41.6" height="9.2"/>
	<polygon id="XMLID_9_" class="st4" points="-26.3,20.6 -39,20.6 -25.8,7.5 -13.1,7.5 	"/>
	<polygon id="XMLID_8_" class="st4" points="-25.8,7.7 -13.1,7.7 -26.3,-5.3 -39,-5.3 	"/>
</g>
<g id="XMLID_6_">
	<path id="XMLID_50_" d="M27.8-6.8h1.4V4.7h-2.7V-5.6h-3c2.5-2.6,4.2-5.7,5.5-8.7h2.8C30.8-11.7,29.4-9.2,27.8-6.8z M26.9-14.5h-3.3
		c2.1-2.1,3.4-4.6,4.7-7h3C30.1-19.1,28.6-16.7,26.9-14.5z M31,4.7V2.6h8v-8.1h-6.7v-2.2h6.7v-7.5h-7.4v-2.1h6.9
		c-0.4-0.9-1.3-3.1-1.5-4.2h2.8c0.3,1.3,1.1,3.4,1.6,4.2H49v2.1h-7.1v7.5h6.4v2.1h-6.4v8.2h7.8v2.1H31z"/>
	<path id="XMLID_54_" d="M61.8,4.6v-5.6C59.7,0,56,1.6,53.5,2.4v-2.5c2.3-0.7,6.3-2.4,8.3-3.5v-11h-8v-2.1h8v-4.8h2.8V4.6H61.8z
		 M79.1,4.6h-7.8c-0.7,0-1.4-0.3-1.8-0.8s-0.8-1.1-0.8-1.9v-23.4h2.7v10.1c2.4-2.2,4-4.8,5.3-7.4h3c-1.5,2.9-3.3,5.8-5.6,8.3h-2.8
		V1.5c0,0.6,0.4,0.9,0.9,0.9h7.6L79.1,4.6z"/>
	<path id="XMLID_57_" d="M108.2,3.7c-0.5,0.6-1.4,0.9-2.6,0.9h-4.3l-1-2.1h4.9c0.4,0,0.8-0.2,0.8-0.7v-3.3h-18
		c-0.1,1.6-0.6,4.4-1.2,6.1h-3.2c1.4-2.9,1.8-6.4,1.8-9.8v-7.3c0-0.4,0.3-0.9,0.4-1l-2.6,0c2.7-2.3,5.3-5.1,7-8h3.4
		c-0.2,0.5-0.8,1.4-1,1.7h7c0.8,0,1.4,0.3,1.7,0.9c0.3,0.5,0.3,1.2-0.2,2c-0.3,0.5-1,1.5-1.4,2.2h6.1c1,0,1.7,0.2,2.2,0.7
		c0.5,0.5,0.8,1.3,0.8,2.3V1.7C108.9,2.6,108.7,3.3,108.2,3.7z M95.9-7h-7.7c0,1.1,0,2.5-0.1,3.4h7.7V-7z M95.9-12.5h-7
		c-0.3,0-0.6,0.3-0.6,0.6v2.8h7.6V-12.5z M98-17.6h-6.9c-0.7,0.9-1.7,2.1-2.4,2.9h7.9c0.6-0.8,1.2-1.6,1.6-2.4
		C98.3-17.4,98.3-17.6,98-17.6z M106.1-11.8c0-0.4-0.3-0.7-0.7-0.7h-6.8v3.4h7.4V-11.8z M106.1-7h-7.4v3.4h7.4V-7z"/>
</g>
<g id="XMLID_5_">
	<path id="XMLID_3_" d="M15.2,19.7v11.6h-1.6V19.7H9.1v-1.3h10.5v1.3H15.2z"/>
	<path id="XMLID_14_" d="M26.7,31.2c-1.1,0.5-2.6,0.4-3.6-0.1c-1.1-0.5-1.9-1.3-2.3-2.4c-0.4-1.3-0.4-3.2,0.2-4.4
		c0.5-1.1,1.4-1.9,2.6-2.3c1.2-0.3,2.5-0.2,3.5,0.3c1.1,0.6,1.6,1.3,1.9,2.5c0.3,1.2,0.3,2.6,0,3.8C28.7,29.7,27.8,30.7,26.7,31.2z
		 M24.7,23.1c-1,0-2,0.7-2.3,1.7c-0.3,1.1-0.3,2.4,0,3.6c0.2,0.9,1.1,1.7,2,1.8c1,0.2,2.3-0.2,2.8-1.2c0.6-1.3,0.6-3.2,0.1-4.5
		C26.8,23.5,25.8,23,24.7,23.1z"/>
	<path id="XMLID_17_" d="M44.4,31.3l-7.1-10.1v10.1h-1.6V18.5h1.6l7.2,10.2V18.5h1.6v12.9H44.4z"/>
	<path id="XMLID_28_" d="M53.7,31.2c-1.1,0.5-2.6,0.4-3.6-0.1c-1.1-0.5-1.9-1.3-2.3-2.4c-0.4-1.3-0.4-3.2,0.2-4.4
		c0.5-1.1,1.4-1.9,2.6-2.3c1.2-0.3,2.5-0.2,3.5,0.3c1.1,0.6,1.6,1.3,1.9,2.5c0.3,1.2,0.3,2.6,0,3.8C55.8,29.7,54.8,30.7,53.7,31.2z
		 M51.8,23.1c-1,0-2,0.7-2.3,1.7c-0.3,1.1-0.3,2.4,0,3.6c0.2,0.9,1.1,1.7,2,1.8c1,0.2,2.3-0.2,2.8-1.2c0.6-1.3,0.6-3.2,0.1-4.5
		C53.9,23.5,52.8,23,51.8,23.1z"/>
	<path id="XMLID_31_" d="M61.4,23.4c-0.5-0.1-0.9,0.1-1.3,0.5c-0.5,0.5-0.7,1.2-0.8,1.9v5.5h-1.6V22h1.6v1.2c0.3-0.5,1-1.1,1.6-1.2
		c0.7-0.1,1.4,0.1,2,0.5v1.9C62.6,23.9,61.9,23.5,61.4,23.4z"/>
	<path id="XMLID_33_" d="M67.8,31.3h-1.5c-0.5,0-0.9-0.1-1.1-0.4c-0.3-0.3-0.4-0.6-0.4-1.2v-6.6h-1.3V22h1.3v-3.5h1.6V22h1.8v1.2
		h-1.8v6.4c0,0.3,0.3,0.5,0.5,0.5h1.6L67.8,31.3z"/>
	<path id="XMLID_35_" d="M76,31.3v-6.2c0-0.7-0.3-1.4-0.9-1.7c-0.6-0.4-1.4-0.3-2.1-0.2c-0.9,0.2-1.6,0.9-2,1.8v6.4h-1.6V18.5h1.6
		V23c0.7-0.7,1.6-1.1,2.6-1.2c1-0.1,2.1,0.1,2.9,0.8c0.6,0.6,1,1.5,1,2.3v6.4H76z"/>
	<path id="XMLID_37_" d="M93.5,24.6c-0.8,0.9-1.8,1.2-3,1.2H86v5.5h-1.6V20.2c0-0.5,0.2-0.9,0.5-1.2c0.3-0.3,0.7-0.5,1.2-0.5h4.8
		c1,0,2,0.4,2.7,1.2c0.6,0.7,0.8,1.7,0.8,2.5C94.3,23.1,94.1,24,93.5,24.6z M92.2,20.5c-0.5-0.6-1.2-0.8-1.9-0.8h-3.8
		c-0.3,0-0.4,0.2-0.4,0.5v4.4h4.2c0.6,0,1.3-0.2,1.8-0.6c0.4-0.4,0.6-1,0.6-1.5C92.7,21.8,92.6,21,92.2,20.5z"/>
	<path id="XMLID_40_" d="M101.6,31.2c-1.1,0.5-2.6,0.4-3.6-0.1s-1.9-1.3-2.3-2.4c-0.4-1.3-0.4-3.2,0.2-4.4c0.5-1.1,1.4-1.9,2.6-2.3
		c1.2-0.3,2.5-0.2,3.5,0.3c1.1,0.6,1.6,1.3,1.9,2.5c0.3,1.2,0.3,2.6,0,3.8C103.7,29.7,102.7,30.7,101.6,31.2z M99.7,23.1
		c-1,0-2,0.7-2.3,1.7c-0.3,1.1-0.3,2.4,0,3.6c0.2,0.9,1.1,1.7,2,1.8c1,0.2,2.3-0.2,2.8-1.2c0.6-1.3,0.6-3.2,0.1-4.5
		C101.8,23.5,100.7,23,99.7,23.1z"/>
	<path id="XMLID_43_" d="M106.6,20.1v-1.7h1.7v1.7H106.6z M106.6,31.3V22h1.7v9.3H106.6z"/>
	<path id="XMLID_46_" d="M116.8,31.3v-6.1c0-0.8-0.3-1.8-1.1-2.1c-0.7-0.3-1.6-0.1-2.2,0.3c-0.8,0.5-1.1,1.2-1.1,2.1v5.8h-1.6V22
		h1.4V23c0.5-0.6,1.1-1,2-1.2c1-0.2,2.3,0,3,0.6c0.9,0.7,1.2,1.4,1.2,2.5v6.3H116.8z"/>
	<path id="XMLID_48_" d="M123.8,31.3h-1.5c-0.5,0-0.9-0.1-1.1-0.4c-0.3-0.3-0.4-0.6-0.4-1.2v-6.6h-1.3V22h1.3v-3.5h1.6V22h1.8v1.2
		h-1.8v6.4c0,0.3,0.3,0.5,0.5,0.5h1.6L123.8,31.3z"/>
</g>
</svg>
