<?xml version="1.0" encoding="utf-8"?>
<!-- Generator: Adobe Illustrator 19.0.0, SVG Export Plug-In . SVG Version: 6.00 Build 0)  -->
<svg version="1.1" id="圖層_1" xmlns="http://www.w3.org/2000/svg" xmlns:xlink="http://www.w3.org/1999/xlink" x="0px" y="0px"
	 viewBox="-112.7 -35.4 272.1 85" style="enable-background:new -112.7 -35.4 272.1 85;" xml:space="preserve">
<style type="text/css">
	.st0{fill:url(#XMLID_91_);}
	.st1{fill:#ECECEC;}
	.st2{fill:#0079C4;}
	.st3{fill:url(#XMLID_92_);}
	.st4{fill:#FF0000;}
</style>
<g id="XMLID_1_">
</g>
<g id="XMLID_124_">
</g>
<g id="XMLID_125_">
</g>
<g id="XMLID_126_">
</g>
<g id="XMLID_127_">
</g>
<g id="XMLID_128_">
</g>
<radialGradient id="XMLID_91_" cx="23.4222" cy="26.8894" r="100.9042" gradientTransform="matrix(0.9998 0 0 -0.9905 -2.640000e-002 33.8007)" gradientUnits="userSpaceOnUse">
	<stop  offset="0.2193" style="stop-color:#00FF00;stop-opacity:0"/>
	<stop  offset="1" style="stop-color:#035353"/>
</radialGradient>
<path id="XMLID_27_" class="st0" d="M148.1,49.7h-249.5c-6.3,0-11.3-5.1-11.3-11.3V-24c0-6.3,5.1-11.3,11.3-11.3h249.5
	c6.3,0,11.3,5.1,11.3,11.3v62.4C159.5,44.6,154.4,49.7,148.1,49.7z"/>
<path id="XMLID_26_" class="st1" d="M143.2,44.6H-96.4c-5.7,0-10.4-4.7-10.4-10.4v-54.2c0-5.7,4.7-10.4,10.4-10.4h239.6
	c5.7,0,10.4,4.7,10.4,10.4v54.2C153.6,40,148.9,44.6,143.2,44.6z"/>
<g id="XMLID_11_">
	<path id="XMLID_20_" class="st2" d="M-80.3,6.8c-0.9,0.3-1.7,0.4-2.5,0.8c-1.6,0.8-2.4,2.2-2.5,4c-0.1,2.3,0.9,4,2.5,5.4
		c1.4,1.3,3,2.3,4.6,3.1c0.3,0.1,0.6,0.3,0.9,0.3c0.9,0.1,1.4-0.1,1.7-0.9c0.4-1,0.7-2,0.9-3.1c0.5-2.8,1-5.7,1.4-8.6
		c0.3-1.8,0.4-3.7,0.5-5.5c0-0.4-0.1-0.7-0.5-0.9c-2.6-1.4-4.9-3.1-7-5.2c-2.2-2.3-3.8-5-4.4-8.2c-0.5-2.9-0.3-5.6,1.6-8.1
		c1.9-2.5,4.4-4.2,7.6-4.6c1-0.1,2.1,0.1,3.2,0.2c0.3,0,0.6,0,0.9-0.1c2.3-0.9,4.7,0.5,5.1,2.9c0.3,1.7-0.9,3.3-2.1,3.8
		c-0.3,0.2-0.5,0.3-0.5,0.7c-0.1,1.7-0.2,3.3-0.2,5c-0.1,2.9-0.1,5.9-0.1,8.8c0,0.4,0.1,0.5,0.5,0.7c2.3,0.8,4.6,1.5,6.8,2.4
		c3.7,1.6,7.2,3.5,10.2,6.2c1.8,1.6,3.3,3.5,4.3,5.7c1.3,2.8,1.2,5.7,0.3,8.5c-0.7,2.2-1.8,4.2-3.1,6.1c-0.2,0.3-0.3,0.3-0.6,0.1
		c-2.2-1.1-4.3-2.3-6.7-2.9c-1.6-0.4-3.2-0.7-4.9-0.6c-1.6,0.1-3.2,0.5-4.7,1c-0.9,0.3-1.8,0.6-2.8,0.8c-1.2,0.2-2.5,0.2-3.7-0.2
		c-1.1-0.4-2.2-0.7-3.3-1.1c-2.8-0.8-5.5-0.7-8.3,0.1c-2.1,0.6-4.1,1.6-6,2.6c-0.5,0.3-0.5,0.3-0.8-0.2c-1.5-3-2.2-6.2-1.9-9.6
		c0.4-4.2,2.4-7.5,6-9.8c1.8-1.2,3.8-1.4,5.9-0.9C-81.4,5.8-80.8,6.3-80.3,6.8z M-72.4-3.9c0.1-1,0.1-1.9,0.2-2.8
		C-72.1-7.8-72-9-72-10.3c0.1-2.4,0.2-4.8,0.3-7.1c0-0.2-0.1-0.5-0.3-0.6c-0.9-0.7-1.6-1.5-1.7-2.7c0-0.2-0.2-0.4-0.4-0.4
		c-0.6-0.3-1.3-0.4-2-0.2c-2.3,0.5-4.1,1.8-5,4c-1,2.5-0.5,4.9,0.9,7c1.8,2.8,4.4,4.7,7.3,6.2C-72.7-4-72.6-4-72.4-3.9z M-69.1,3.5
		c0,0.1,0,0.2,0,0.3c0,1.2,0,2.4,0.1,3.6c0.1,1.1,0.1,2.1,0.3,3.2c0.3,2.2,0.6,4.5,0.9,6.7c0.1,0.7,0.3,1.4,0.5,2.1
		c0.2,0.7,0.7,0.8,1.4,0.4c0.2-0.2,0.4-0.3,0.6-0.5c1-1.1,1.6-2.4,2.1-3.8c0.8-2.4,0.9-4.7-0.4-7c-1.2-2.2-3-3.7-5.1-4.9
		C-68.9,3.5-69,3.5-69.1,3.5z M-71.4,20.4c0.1-0.1,0.1-0.1,0.2-0.2c0.1-0.1,0.1-0.2,0.2-0.3c0.5-1,0.5-2.1,0.5-3.1
		c-0.1-2.9-0.2-5.7-0.3-8.6C-70.9,6.4-71,4.7-71,3c0-0.1-0.1-0.2-0.1-0.2c-0.1,0.2-0.1,0.3-0.2,0.5c-0.1,1-0.1,2-0.2,3
		c-0.1,1.8-0.2,3.5-0.3,5.3c-0.1,1.1-0.1,2.1-0.2,3.2c-0.1,1.3-0.1,2.6-0.1,4C-72.1,19.3-71.8,19.9-71.4,20.4z M-68.8-21.2
		c0-0.8-0.5-1.3-1.3-1.3c-0.8,0-1.3,0.6-1.3,1.3c0,0.7,0.5,1.3,1.3,1.3C-69.3-20-68.8-20.5-68.8-21.2z"/>
	<path id="XMLID_19_" class="st2" d="M-85.7,33.5c1.5-0.7,2.9-1.2,4.3-1.4c2-0.3,3.9,0.2,5.7,0.8c1.3,0.5,2.6,0.8,4,0.9
		c1.3,0,2.5-0.2,3.8-0.6c1.1-0.4,2.2-0.7,3.4-1c1.8-0.4,3.5-0.2,5.2,0.4c0.7,0.2,1.3,0.5,2.1,0.8c-0.2,0.2-0.4,0.3-0.5,0.4
		c-3.5,2.5-7.3,4.4-11.5,5.6c-0.8,0.2-1.5,0.4-2.3,0.5c-0.4,0-0.7-0.1-1.1-0.2c-3.9-1.1-7.5-2.6-10.9-4.7
		C-84.2,34.6-84.9,34.1-85.7,33.5z"/>
	<path id="XMLID_13_" class="st2" d="M-90.8,28.1c0.5-0.2,0.8-0.4,1.2-0.6c1.9-1,3.8-1.9,5.9-2.3c2.3-0.5,4.5-0.4,6.8,0.4
		c1.2,0.4,2.4,0.8,3.6,1.1c1.8,0.4,3.6,0.2,5.4-0.4c1.2-0.4,2.3-0.8,3.5-1.1c2.5-0.6,5-0.4,7.3,0.6c1.8,0.7,3.5,1.5,5.4,2.4
		c-0.4,0.5-0.8,0.9-1.1,1.2c-0.1,0.1-0.3,0-0.4-0.1c-1.3-0.6-2.6-1.3-4-1.8c-3.4-1.3-6.8-1.2-10.2,0c-1,0.4-2,0.6-3,0.8
		c-1.2,0.3-2.3,0-3.4-0.3c-1.4-0.4-2.8-0.9-4.2-1.2c-2.3-0.5-4.7-0.3-6.9,0.5c-1.6,0.6-3.1,1.3-4.6,2c-0.3,0.1-0.5,0.2-0.7-0.2
		C-90.4,28.8-90.6,28.5-90.8,28.1z"/>
	<path id="XMLID_12_" class="st2" d="M-54.2,30.9c-0.4,0.4-0.8,0.8-1.2,1.1c-0.1,0.1-0.3,0-0.5,0c-1.3-0.5-2.6-1-4-1.4
		c-2.4-0.7-4.8-0.4-7.2,0.5c-1.1,0.4-2.3,0.7-3.5,0.9c-1.1,0.2-2.1,0-3.1-0.3c-1.3-0.4-2.5-0.8-3.8-1.1c-2.1-0.5-4.3-0.3-6.3,0.4
		c-1,0.3-2.1,0.8-3.1,1.2c-0.2,0.1-0.4,0.1-0.6-0.1c-0.3-0.3-0.7-0.6-1.1-1c0.1,0,0.2-0.1,0.2-0.1c1.8-0.9,3.6-1.7,5.5-2.2
		c2.2-0.5,4.3-0.3,6.4,0.5c1.1,0.4,2.3,0.8,3.5,1c1.4,0.2,2.9,0.2,4.3-0.2c1.4-0.4,2.7-0.9,4.1-1.2c2.1-0.5,4.2-0.3,6.2,0.4
		c1.3,0.5,2.5,1.1,3.8,1.6C-54.5,30.7-54.4,30.8-54.2,30.9z"/>
</g>
<g id="XMLID_7_">
	
		<linearGradient id="XMLID_92_" gradientUnits="userSpaceOnUse" x1="-59.9109" y1="26.5232" x2="-18.3069" y2="26.5232" gradientTransform="matrix(1 0 0 -1 -3.266449e-006 34.06)">
		<stop  offset="0" style="stop-color:#FF0000;stop-opacity:0"/>
		<stop  offset="0.3" style="stop-color:#FF0000"/>
	</linearGradient>
	<rect id="XMLID_10_" x="-59.9" y="2.9" class="st3" width="41.6" height="9.2"/>
	<polygon id="XMLID_9_" class="st4" points="-26.3,20.6 -39,20.6 -25.8,7.5 -13.1,7.5 	"/>
	<polygon id="XMLID_8_" class="st4" points="-25.8,7.7 -13.1,7.7 -26.3,-5.3 -39,-5.3 	"/>
</g>
<g id="XMLID_6_">
	<path id="XMLID_49_" d="M12.8-6.8h1.4V4.7h-2.7V-5.6h-3c2.5-2.6,4.2-5.7,5.5-8.7h2.8C15.8-11.7,14.4-9.2,12.8-6.8z M11.9-14.5H8.5
		c2.1-2.1,3.4-4.6,4.7-7h3C15.1-19.1,13.6-16.7,11.9-14.5z M16,4.7V2.6h8v-8.1h-6.7v-2.2h6.7v-7.5h-7.4v-2.1h6.9
		c-0.4-0.9-1.3-3.1-1.5-4.2h2.8c0.3,1.3,1.1,3.4,1.6,4.2H34v2.1h-7.1v7.5h6.4v2.1h-6.4v8.2h7.8v2.1H16z"/>
	<path id="XMLID_53_" d="M47.2-4.2c-0.4,0.5-1.1,0.7-1.8,0.7h-4.1c-0.6,0-1.1-0.2-1.5-0.6c-0.4-0.4-0.7-0.9-0.7-1.6v-7.5
		c0-0.3,0.1-0.8,0.3-1h-1.2c1.4-1.9,2.7-5.2,3.2-7.4h2.6c-0.1,0.5-0.4,1.3-0.5,1.7h1.7c0.6,0,1.2,0.2,1.4,0.6
		c0.3,0.4,0.3,0.8,0.1,1.6c-0.2,0.6-0.6,1.8-1,2.5c0.6,0.1,1.1,0.4,1.4,0.8c0.3,0.4,0.5,0.9,0.5,1.5v6.7C47.8-5.2,47.6-4.6,47.2-4.2
		z M40.7,4.7h-2.2c0.5-2,0.8-4.8,0.8-7h2C41.3-0.2,41.1,2.7,40.7,4.7z M42.4-13.1h-0.6c-0.2,0-0.5,0.1-0.5,0.4v2.3h1.1V-13.1z
		 M42.4-8.5h-1.1v2.5c0,0.4,0.2,0.6,0.5,0.6h0.6V-8.5z M44.1-17.8h-1.1c-0.3,0.7-0.9,2-1.3,2.8h1.7c0.3-0.7,0.8-1.7,1-2.4
		C44.4-17.6,44.3-17.8,44.1-17.8z M42.6,4.7c-0.3-1.6-0.7-5-0.7-7h1.7c0.1,2.1,0.4,5.5,0.8,7H42.6z M45.4,4.7
		c-0.4-1.7-0.8-5.1-0.9-7h1.6c0.1,2,0.6,5.2,1.1,7H45.4z M45.7-12.6c0-0.3-0.3-0.5-0.6-0.5h-0.7v2.7h1.2V-12.6z M45.7-8.5h-1.2v3.1
		h0.8c0.3,0,0.4-0.2,0.4-0.5V-8.5z M51.1,4.7h-2.6c0.2-0.4,0.5-1,0.5-1.4h-1.3c-0.3-1.3-0.7-4-0.9-5.6h1.6c0.1,1.4,0.5,3.8,0.8,4.9
		C49.6,1.7,49.9,0.1,50-1h2.4C52.2,0.9,51.6,3.1,51.1,4.7z M55.9-2.7c-0.4,0.4-1.1,0.6-1.7,0.6h-2.8c-0.7,0-1.3-0.3-1.8-0.7
		c-0.4-0.4-0.7-1-0.7-1.7v-14.1c0-0.7,0.3-1.3,0.8-1.6c0.5-0.4,1.1-0.6,1.7-0.6h2.8c0.8,0,1.3,0.3,1.7,0.7c0.4,0.4,0.6,1,0.6,1.6
		v14.4C56.5-3.5,56.3-3.1,55.9-2.7z M54.2-18.3c0-0.3-0.3-0.6-0.6-0.6h-1.7c-0.3,0-0.6,0.2-0.6,0.5v2.9h2.9V-18.3z M54.2-13.4h-2.9
		v3.6h2.9V-13.4z M54.2-7.9h-2.9v3.2c0,0.4,0.3,0.6,0.6,0.6h1.8c0.4,0,0.5-0.2,0.5-0.6V-7.9z M55.1,4.7c-0.5-1.2-1.1-4-1.4-5.7h2.4
		c0.2,1.3,1,4.1,1.6,5.7H55.1z M58-0.8v-18.7h2.3v18.7H58z M63.6,4c-0.4,0.4-1.1,0.7-2,0.7h-1.7l-0.8-2h2c0.4,0,0.6-0.2,0.6-0.7
		v-23.5h2.5V2.3C64.3,3,64.1,3.5,63.6,4z"/>
	<path id="XMLID_71_" d="M92.2-4.1C91.7-3.5,91-3.2,90-3.2H72.5c-0.6,0-1.2-0.3-1.6-0.8c-0.3-0.4-0.5-0.9-0.5-1.5v-7
		c0-0.2,0.1-0.5,0.2-0.7h-2.3c3.4-2.3,5.8-5.2,7.6-8.4h3.2c-0.3,0.5-0.7,1.2-1,1.6h6.3c0.7,0,1.2,0.3,1.4,0.8
		c0.3,0.5,0.3,1.2-0.1,1.8c-0.4,0.7-1.2,1.9-1.5,2.4h5.8c0.8,0,1.5,0.3,2,0.7c0.5,0.5,0.8,1.2,0.8,2v6.6C92.8-5,92.6-4.5,92.2-4.1z
		 M71.6,4.6h-3.1c1.6-2.4,2.5-4.8,3.1-6.9h2.7C73.8-0.2,72.8,2.6,71.6,4.6z M80.3-12.9h-6.4c-0.5,0-0.8,0.4-0.8,0.8v1.9h7.3V-12.9z
		 M80.3-8.1H73v2c0,0.4,0.3,0.9,0.8,0.9h6.5V-8.1z M82.7-17.9h-6c-0.7,0.9-1.7,2.1-2.4,2.8h6.8c0.5-0.6,1.4-1.9,1.8-2.6
		C82.9-17.7,82.8-17.9,82.7-17.9z M78,4.6c-0.6-1.6-1.6-4.8-1.9-6.9h2.7C79-0.5,80,2.8,80.8,4.6H78z M84.8,4.6c-0.8-1.6-2-5-2.5-6.9
		h2.7C85.7,0,86.6,2.7,88,4.6H84.8z M90-12.1c0-0.5-0.3-0.8-0.8-0.8H83v2.7H90V-12.1z M90-8.1H83v2.9h6.2c0.5,0,0.9-0.4,0.9-0.9
		V-8.1z M91.7,4.6c-1.3-2-2.4-4.7-2.9-6.9h2.7c0.7,2.1,1.8,4.9,3.3,6.9H91.7z"/>
	<path id="XMLID_82_" d="M101.5,4.7h-3.1c1.8-3.4,2.8-7.3,3.6-11.1h2.7C103.9-2.6,103,1.2,101.5,4.7z M101.6-15.4
		c-1.2-2-2.3-4.1-3.1-6.3h3c1,2.2,2,4.4,3.5,6.3H101.6z M101.4-8c-1.2-2.1-2.2-4.3-2.9-6.6h2.8c0.9,2.3,1.9,4.4,3.4,6.6H101.4z
		 M123.2,3.9c-0.5,0.5-1.2,0.8-1.9,0.8h-2.9l-0.9-2.1h3.1c0.4,0,0.6-0.2,0.6-0.5v-4.3h-5.3v6.6h-2.7v-6.6h-5.1v7h-2.8v-17.2
		c0-0.6,0.3-1.1,0.7-1.5c0.5-0.4,1.1-0.7,1.6-0.7h4.3c-1.1-1.1-2.4-2.3-3.4-3.5h3.5c0.4,0.5,0.9,1,1.4,1.5c1.8-0.8,3.6-1.6,5.4-2.7
		c-0.8,0.1-2.3,0.1-3.1,0.1h-10.8v-2.1h15.5c0.8,0,1.4,0.4,1.7,1c0.3,0.6,0.3,1.4-0.3,1.9c-1.1,1-4.3,2.4-6.5,3.2
		c0.2,0.1,0.5,0.4,0.7,0.5h5.3c0.6,0,1.3,0.3,1.7,0.7c0.5,0.5,0.8,1.1,0.8,1.9V2.4C123.8,3,123.6,3.5,123.2,3.9z M113.3-12.7h-4.4
		c-0.3,0-0.7,0.2-0.7,0.6v2.5h5.1V-12.7z M113.3-7.4h-5.1v3.1h5.1V-7.4z M121.2-11.9c0-0.4-0.4-0.7-0.8-0.7h-4.5v3.1h5.3V-11.9z
		 M121.2-7.4h-5.3v3.1h5.3V-7.4z"/>
</g>
<g id="XMLID_5_">
	<path id="XMLID_3_" d="M14.1,19.7v11.6h-1.6V19.7H8v-1.3h10.5v1.3H14.1z"/>
	<path id="XMLID_14_" d="M25.6,31.2c-1.1,0.5-2.6,0.4-3.6-0.1c-1.1-0.5-1.9-1.3-2.3-2.4c-0.4-1.3-0.4-3.2,0.2-4.4
		c0.5-1.1,1.4-1.9,2.6-2.3c1.2-0.3,2.5-0.2,3.5,0.3c1.1,0.6,1.6,1.3,1.9,2.5c0.3,1.2,0.3,2.6,0,3.8C27.6,29.7,26.7,30.7,25.6,31.2z
		 M23.6,23.1c-1,0-2,0.7-2.3,1.7c-0.3,1.1-0.3,2.4,0,3.6c0.2,0.9,1.1,1.7,2,1.8c1,0.2,2.3-0.2,2.8-1.2c0.6-1.3,0.6-3.2,0.1-4.5
		C25.8,23.5,24.7,23,23.6,23.1z"/>
	<path id="XMLID_17_" d="M44.4,31.3c-0.2-0.1-0.8-0.5-0.9-0.6c-1.4,0.8-3,1-4.5,0.6c-1.5-0.3-2.7-1.2-3.5-2.4
		c-1.1-1.6-1.4-3.8-0.9-5.8c0.4-1.8,1.7-3.6,3.5-4.3c1.5-0.5,3.2-0.6,4.7-0.1c1.6,0.5,2.6,1.5,3.3,3c0.5,1.1,0.7,2.4,0.6,3.6
		c-0.1,1.7-0.8,3.3-2,4.5c0.8,0.5,1.9,1.2,2.7,1.6H44.4z M44.4,21.9c-0.5-1.1-1.4-1.9-2.5-2.2c-1-0.3-2.2-0.3-3.2,0.2
		c-1.2,0.5-1.8,1.3-2.3,2.5c-0.6,1.6-0.6,3.5,0.1,5.1c0.5,1.1,1.3,1.9,2.4,2.3c1,0.4,2.2,0.4,3.2-0.1c-0.8-0.6-1.7-1.2-2.4-1.9H42
		c0.4,0.3,0.9,0.8,1.4,1.1c0.7-0.8,1.4-1.7,1.5-3.2C45.1,24.5,44.9,23,44.4,21.9z"/>
	<path id="XMLID_29_" d="M54.7,31.3v-1.2c-0.5,0.7-1.3,1.2-2.2,1.3c-0.9,0.1-1.9,0-2.7-0.6c-0.7-0.6-1.2-1.5-1.2-2.6V22h1.7v6.6
		c0,0.6,0.3,1.2,0.8,1.5c0.5,0.3,1,0.3,1.5,0.2c0.9-0.2,1.7-1,2.1-1.8V22h1.6l0,9.4H54.7z"/>
	<path id="XMLID_31_" d="M65.2,31.3c-0.2-0.4-0.3-0.9-0.4-1.2c-0.8,0.7-1.8,1.3-2.9,1.4c-0.8,0.1-1.6,0-2.3-0.3
		c-0.6-0.3-1-0.8-1.2-1.4c-0.2-0.7-0.2-1.4,0-2.1c0.3-0.7,0.9-1.2,1.6-1.5c0.6-0.2,1.6-0.3,2.3-0.4c0.8-0.1,1.8-0.4,2.3-0.8
		c0-0.3,0-0.9-0.3-1.3C64,23.3,63.5,23.1,63,23c-0.6-0.1-1.4,0-2,0.3s-1,0.8-1.1,1.4h-1.7c0.1-1,1-1.9,1.9-2.4
		c0.8-0.4,2-0.6,2.9-0.5c0.9,0,1.9,0.3,2.6,1c0.5,0.6,0.7,1.3,0.7,2.2c0,1.2,0,2.8,0,3.6c0,0.9,0.3,2.1,0.7,2.7H65.2z M64.6,26.4
		C64,26.7,63.2,27,62.6,27c-0.6,0.1-1.2,0.1-1.7,0.3c-0.4,0.2-0.7,0.4-0.9,0.8c-0.2,0.4-0.2,0.8-0.1,1.2c0.1,0.4,0.5,0.7,0.9,0.8
		c0.3,0.1,0.8,0.1,1.2,0c1.1-0.2,2-0.8,2.6-1.7C64.6,27.8,64.6,26.9,64.6,26.4z"/>
	<path id="XMLID_34_" d="M72,23.4c-0.5-0.1-0.9,0.1-1.3,0.5c-0.5,0.5-0.7,1.2-0.8,1.9v5.5h-1.6V22h1.6v1.2c0.3-0.5,1-1.1,1.6-1.2
		c0.7-0.1,1.4,0.1,2,0.5v1.9C73.2,23.9,72.5,23.5,72,23.4z"/>
	<path id="XMLID_36_" d="M78.3,23.4c-0.5-0.1-0.9,0.1-1.3,0.5c-0.5,0.5-0.7,1.2-0.8,1.9v5.5h-1.6V22h1.6v1.2c0.3-0.5,1-1.1,1.6-1.2
		c0.7-0.1,1.4,0.1,2,0.5v1.9C79.5,23.9,78.8,23.5,78.3,23.4z"/>
	<path id="XMLID_38_" d="M84.7,33.8c-0.2,0.4-0.4,0.7-0.8,0.9c-0.3,0.2-0.7,0.3-1,0.3h-1.3l-0.7-1.3h1.6c0.3,0,0.6-0.3,0.7-0.5
		l0.9-2.3L80.4,22h1.8l2.8,6.7l2.8-6.7h1.9L84.7,33.8z"/>
	<path id="XMLID_40_" d="M104.1,30.6c-0.7,0.6-1.6,0.7-2.5,0.7h-4.2c-0.5,0-0.9-0.2-1.2-0.5c-0.3-0.3-0.4-0.6-0.4-1V20
		c0-0.5,0.2-0.9,0.5-1.1c0.3-0.3,0.7-0.4,1.1-0.4h4.4c1,0,1.9,0.6,2.5,1.4c0.5,0.8,0.6,2,0.3,2.9c-0.2,0.9-0.7,1.4-1.5,1.9
		c0.7,0.2,1.4,0.7,1.8,1.3c0.4,0.7,0.5,1.7,0.4,2.5C105.1,29.3,104.8,30,104.1,30.6z M101.6,19.7H98c-0.3,0-0.5,0.2-0.5,0.5V24h3.9
		c0.6,0,1.2-0.4,1.5-0.9c0.4-0.7,0.4-1.7,0.1-2.4C102.8,20.1,102.2,19.7,101.6,19.7z M103.1,25.8c-0.5-0.5-1.1-0.6-1.7-0.6h-3.9v4.3
		c0,0.3,0.3,0.5,0.5,0.5h3.4c0.7,0,1.5-0.1,1.9-0.6c0.4-0.4,0.5-1.2,0.5-1.7C103.8,27.1,103.6,26.3,103.1,25.8z"/>
	<path id="XMLID_44_" d="M113.5,31.3c-0.2-0.4-0.3-0.9-0.4-1.2c-0.8,0.7-1.8,1.3-2.9,1.4c-0.8,0.1-1.6,0-2.3-0.3
		c-0.6-0.3-1-0.8-1.2-1.4c-0.2-0.7-0.2-1.4,0-2.1c0.3-0.7,0.9-1.2,1.6-1.5c0.6-0.2,1.6-0.3,2.3-0.4c0.8-0.1,1.8-0.4,2.3-0.8
		c0-0.3,0-0.9-0.3-1.3c-0.3-0.3-0.8-0.5-1.3-0.6c-0.6-0.1-1.4,0-2,0.3c-0.6,0.3-1,0.8-1.1,1.4h-1.7c0.1-1,1-1.9,1.9-2.4
		c0.8-0.4,2-0.6,2.9-0.5c0.9,0,1.9,0.3,2.6,1c0.5,0.6,0.7,1.3,0.7,2.2c0,1.2,0,2.8,0,3.6c0,0.9,0.3,2.1,0.7,2.7H113.5z M113,26.4
		c-0.6,0.3-1.4,0.6-2.1,0.6c-0.6,0.1-1.2,0.1-1.7,0.3c-0.4,0.2-0.7,0.4-0.9,0.8c-0.2,0.4-0.2,0.8-0.1,1.2c0.1,0.4,0.5,0.7,0.9,0.8
		c0.3,0.1,0.8,0.1,1.2,0c1.1-0.2,2-0.8,2.6-1.7C113,27.8,113,26.9,113,26.4z"/>
	<path id="XMLID_47_" d="M120.5,33.8c-0.2,0.4-0.4,0.7-0.8,0.9c-0.3,0.2-0.7,0.3-1,0.3h-1.3l-0.7-1.3h1.6c0.3,0,0.6-0.3,0.7-0.5
		l0.9-2.3l-3.8-8.9h1.8l2.8,6.7l2.8-6.7h1.9L120.5,33.8z"/>
</g>
</svg>
